<?xml version="1.0" encoding="UTF-8" standalone="no"?>
<!DOCTYPE svg PUBLIC "-//W3C//DTD SVG 1.1//EN" "http://www.w3.org/Graphics/SVG/1.1/DTD/svg11.dtd">
<svg width="100%" height="100%" viewBox="0 0 4473 1165" version="1.1" xmlns="http://www.w3.org/2000/svg" xmlns:xlink="http://www.w3.org/1999/xlink" xml:space="preserve" xmlns:serif="http://www.serif.com/" style="fill-rule:evenodd;clip-rule:evenodd;stroke-linejoin:round;stroke-miterlimit:2;">
    <g transform="matrix(1,0,0,1,241.526367,65.645264)">
        <path d="M0,0C1.739,0.058 1.739,0.058 3.514,0.118C11.364,0.587 19.201,1.148 27.04,1.781C28.942,1.93 30.844,2.079 32.747,2.227C36.765,2.541 40.783,2.857 44.801,3.175C55.267,4.003 65.736,4.805 76.204,5.605C77.747,5.723 77.747,5.723 79.321,5.843C91.281,6.755 103.241,7.649 115.212,8.417C116.181,8.48 117.151,8.542 118.149,8.606C165.225,11.511 212.302,12.698 259.462,12.615C266.049,12.604 272.636,12.611 279.223,12.622C311.69,12.67 344.052,12.081 376.474,10.355C377.449,10.303 378.425,10.251 379.43,10.198C395.25,9.36 395.25,9.36 411.06,8.347C412.07,8.276 413.08,8.206 414.12,8.133C435.311,6.607 456.47,4.608 477.626,2.659C479.526,2.485 479.526,2.485 481.464,2.306C486.53,1.835 491.592,1.354 496.647,0.779C499.824,0.427 502.847,0.247 506.036,0.292C507.307,0.306 507.307,0.306 508.603,0.32C509.22,0.331 509.837,0.343 510.474,0.355C510.037,19.085 500.886,36.112 493.442,52.906C491.367,57.589 489.31,62.28 487.255,66.972C481.519,80.062 475.777,93.148 469.999,106.22C461.234,126.054 452.632,145.94 444.361,165.986C444.081,166.665 443.801,167.343 443.513,168.042C443.244,168.694 442.975,169.345 442.699,170.016C440.705,174.834 438.626,179.605 436.474,184.355C424.484,182.446 413.276,178.852 401.797,174.974C384.383,169.103 366.903,163.556 349.224,158.542C347.928,158.173 347.928,158.173 346.607,157.796C336.948,155.051 327.289,152.484 317.474,150.355C317.938,151.561 317.938,151.561 318.411,152.792C320.427,159.551 320.621,166.523 320.67,173.54C320.679,174.315 320.688,175.089 320.697,175.888C320.726,178.466 320.748,181.045 320.771,183.624C320.79,185.494 320.81,187.364 320.83,189.235C320.884,194.349 320.932,199.463 320.979,204.577C321.019,208.944 321.063,213.31 321.106,217.677C321.235,230.702 321.354,243.728 321.47,256.754C321.525,262.915 321.581,269.075 321.638,275.236C322.292,346.172 322.657,417.103 322.599,488.042C322.597,489.516 322.597,489.516 322.596,491.02C322.575,515.465 322.536,539.91 322.474,564.355C321.186,564.609 319.898,564.863 318.571,565.124C313.726,566.081 308.881,567.042 304.037,568.004C301.953,568.418 299.869,568.83 297.784,569.241C247.474,579.162 201.283,596.256 159.474,626.355C189.35,658.348 246.905,672.755 289.12,674.462C291.792,674.517 294.462,674.545 297.134,674.558C298.113,674.565 299.093,674.572 300.103,674.579C330.31,674.747 358.057,672.659 387.474,665.355C389.082,664.96 389.082,664.96 390.723,664.558C425.548,655.918 458.525,642.897 490.343,626.395C493.947,624.635 496.7,624.241 500.661,624.292C501.511,624.303 504.344,624.34 505.474,624.355C505.591,637.807 505.328,651.244 504.894,664.689C504.821,667.074 504.759,669.46 504.705,671.845C504.627,675.326 504.516,678.805 504.399,682.284C504.373,683.887 504.373,683.887 504.345,685.523C504.236,688.228 504.097,690.72 503.474,693.355C501.123,695.44 501.123,695.44 498.474,696.355C497.382,696.915 496.29,697.476 495.165,698.054C421.26,734.053 341.009,758.916 259.474,769.355C258.028,769.552 258.028,769.552 256.552,769.753C211.9,775.718 165.275,770.906 122.474,757.355C121.255,756.973 121.255,756.973 120.013,756.583C83.181,744.852 48.359,724.807 18.474,700.355C17.578,699.637 16.682,698.919 15.759,698.179C12.975,695.93 10.224,693.644 7.474,691.355C6.047,690.208 6.047,690.208 4.591,689.038C-3.365,682.541 -10.701,675.416 -17.989,668.19C-19.118,667.07 -20.25,665.953 -21.384,664.838C-28.995,657.341 -35.816,649.521 -42.264,641.004C-44.451,638.147 -46.713,635.349 -48.964,632.542C-55.152,624.716 -60.872,616.571 -66.526,608.355C-66.958,607.73 -67.39,607.105 -67.834,606.461C-100.04,559.656 -123.689,507.577 -143.356,454.473C-144.386,451.729 -145.454,449.005 -146.546,446.284C-150.524,436.174 -152.738,426.023 -149.651,415.23C-146.763,408.999 -141.835,403.648 -137.526,398.355C-137.012,397.719 -136.497,397.084 -135.967,396.429C-133.79,393.741 -131.609,391.054 -129.42,388.375C-125.858,384.014 -122.36,379.611 -118.901,375.167C-114.455,369.464 -109.835,363.932 -105.14,358.433C-102.748,355.628 -100.412,352.78 -98.089,349.917C-93.191,343.904 -88.137,338.031 -83.075,332.157C-81.548,330.38 -80.03,328.595 -78.515,326.808C-73.074,320.4 -67.545,314.104 -61.798,307.968C-59.188,305.178 -56.637,302.349 -54.132,299.464C-50.57,295.374 -46.878,291.419 -43.151,287.48C-38.296,282.325 -33.491,277.136 -28.772,271.855C-22.405,264.768 -15.999,257.715 -9.189,251.05C-7.601,249.431 -6.147,247.757 -4.686,246.023C0.962,239.537 7.136,233.549 13.22,227.476C14.558,226.137 15.897,224.797 17.235,223.458C20.03,220.661 22.826,217.867 25.624,215.074C29.193,211.511 32.757,207.944 36.319,204.375C39.079,201.612 41.841,198.851 44.604,196.09C45.918,194.777 47.232,193.462 48.545,192.147C55.013,185.67 61.449,179.236 68.474,173.355C69.222,172.704 69.971,172.053 70.743,171.383C71.323,170.881 71.903,170.379 72.501,169.863C73.147,169.303 73.794,168.744 74.46,168.167C75.788,167.019 77.116,165.87 78.444,164.722C79.082,164.17 79.719,163.618 80.376,163.05C81.234,162.308 81.234,162.308 82.11,161.551C82.919,160.841 83.713,160.115 84.474,159.355C84.515,157.022 84.516,154.688 84.474,152.355C81.256,150.728 78.022,149.133 74.786,147.542C73.447,146.865 73.447,146.865 72.081,146.173C60.833,140.689 49.864,138.802 37.411,138.917C36.236,138.926 35.06,138.934 33.849,138.942C23.325,139.144 13.622,140.659 3.474,143.355C2.609,143.575 1.744,143.795 0.854,144.022C-34.711,153.191 -69.513,168.111 -103.179,182.628C-104.292,183.106 -105.406,183.584 -106.553,184.077C-108.542,184.937 -110.526,185.811 -112.502,186.701C-117.236,188.756 -120.379,190.014 -125.526,188.355C-126.186,188.025 -126.846,187.695 -127.526,187.355C-125.772,182.277 -122.979,177.866 -120.214,173.292C-119.759,172.528 -119.305,171.765 -118.837,170.978C-112.997,161.271 -106.729,151.831 -100.526,142.355C-99.978,141.517 -99.43,140.679 -98.865,139.815C-94.928,133.801 -90.98,127.795 -87.026,121.792C-86.409,120.855 -85.792,119.918 -85.156,118.952C-75.286,103.97 -65.299,89.071 -55.239,74.216C-43.776,57.285 -32.514,40.227 -21.323,23.115C-19.691,20.632 -18.041,18.163 -16.387,15.695C-14.628,13.064 -12.959,10.419 -11.388,7.671C-8.209,2.468 -6.352,-0.235 0,0ZM129.647,223.903C128.827,224.733 128.006,225.562 127.161,226.417C126.312,227.273 125.462,228.128 124.587,229.01C118.817,234.872 113.448,240.798 108.474,247.355C107.321,248.799 107.321,248.799 106.146,250.273C94.726,264.643 84.926,280.072 76.474,296.355C76.123,297.028 75.773,297.701 75.413,298.394C45.407,356.941 39.633,426.869 59.469,489.376C62.133,497.527 64.928,505.54 68.474,513.355C68.875,514.244 69.277,515.134 69.691,516.05C79.629,537.839 91.306,558.058 105.474,577.355C106.317,578.518 107.16,579.682 108.001,580.847C109.817,583.356 111.641,585.858 113.474,588.355C119.759,587.632 123.72,580.951 127.474,576.355C162.882,527.898 155.512,458.472 156.536,401.73C156.558,400.516 156.58,399.303 156.603,398.053C157.416,352.992 157.416,352.992 157.778,307.926C157.786,305.965 157.8,304.005 157.814,302.045C158.012,272.232 156.217,241.755 146.474,213.355C139.012,213.355 134.677,218.9 129.647,223.903Z" style="fill:white;fill-rule:nonzero;"/>
    </g>
    <g transform="matrix(1,0,0,1,2227.375,84.625)">
        <path d="M171.227,233.86C172.789,234.314 175.637,237.352 175.637,237.352C175.637,237.352 182.771,244.314 186.938,247.688C195.059,254.283 202.733,261.359 210.051,268.836C211.676,270.425 213.373,271.866 215.125,273.312C218.307,275.987 220.921,278.944 223.613,282.102C228.856,288.027 234.547,293.674 240.562,298.812C248.239,305.383 255.391,312.712 261.934,320.406C263.864,322.653 265.869,324.821 267.875,327C273.459,333.203 278.54,339.765 283.625,346.375L285.5,348.797C293.314,358.902 300.957,369.064 308.094,379.66C310.221,382.813 312.44,385.888 314.688,388.955C324.914,402.949 324.914,402.949 326.188,410.875C324.692,420.179 319.563,428.74 315.25,437L314.332,438.763C294.7,476.414 271.244,512.288 244.625,545.375L243.095,547.288C232.656,560.324 221.853,573.017 210.499,585.266C208.691,587.217 206.897,589.177 205.111,591.146C196.92,600.137 188.389,608.765 179.778,617.352C177.361,619.764 174.95,622.18 172.539,624.598L167.859,629.273L165.712,631.427C161.176,635.942 156.482,640.208 151.625,644.375C150.542,645.324 149.46,646.275 148.379,647.227C140.175,654.382 131.669,661.049 122.975,667.596C120.498,669.471 118.037,671.364 115.578,673.262C82.047,699.095 46.529,720.636 9.302,740.684C2.185,744.518 -4.893,748.417 -11.933,752.393C-17.461,755.496 -21.287,756.588 -27.625,756.75L-31.516,756.898C-43.271,756.265 -55.09,749.931 -65.5,744.938L-69.387,743.096C-72.059,741.829 -74.728,740.556 -77.396,739.279C-80.631,737.729 -83.872,736.191 -87.115,734.658C-138.557,710.312 -186.678,680.253 -229.984,643.258C-232.164,641.396 -234.361,639.559 -236.578,637.742C-244.216,631.424 -251.301,624.631 -258.312,617.625L-261.004,614.936C-268.326,607.552 -275.093,599.834 -281.625,591.75L-283.318,589.658C-288.737,582.949 -294.12,576.214 -299.375,569.375L-300.741,567.6C-308.367,557.628 -315.087,547.237 -321.375,536.375L-322.848,533.832C-345.474,494.4 -359.245,451.322 -366.188,406.5L-366.779,402.691C-369.591,383.327 -370.715,363.956 -370.636,344.398C-370.625,341.216 -370.636,338.034 -370.648,334.852C-370.67,306.759 -364.925,288.781 -345.293,268.191C-339.589,262.085 -334.728,255.523 -329.823,248.768C-324.388,241.31 -318.628,234.163 -312.751,227.051C-310.909,224.807 -309.11,222.53 -307.312,220.25C-299.531,210.507 -291.278,201.178 -282.812,192.027C-280.858,189.9 -278.946,187.752 -277.062,185.562C-268.772,176.02 -260.023,166.856 -250.973,158.035C-248.98,155.994 -247.125,153.944 -245.273,151.781C-240.899,146.737 -236.188,142.038 -231.46,137.329C-229.94,135.815 -228.426,134.296 -226.912,132.775C-222.136,127.996 -217.311,123.325 -212.174,118.929C-209.219,116.377 -206.403,113.679 -203.562,111C-197.7,105.52 -191.643,100.388 -185.375,95.375C-184.183,94.394 -182.993,93.411 -181.805,92.426C-172.364,84.629 -162.651,77.278 -152.738,70.094C-150.463,68.439 -148.201,66.769 -145.941,65.094C-122.366,47.703 -96.983,33.038 -71.36,18.908C-65.126,15.47 -58.929,11.982 -52.771,8.41C-18.226,-11.623 -18.226,-11.623 0,0C3.522,2.437 6.668,5.165 9.875,8C17.399,14.493 26.05,19.061 34.739,23.8C37.624,25.374 40.496,26.971 43.367,28.57C80.752,49.268 120.069,65.693 160.425,79.616C162.597,80.365 164.768,81.119 166.939,81.873C192.092,90.582 217.572,98.169 243.115,105.641C245.427,106.317 247.738,106.994 250.048,107.672C256.57,109.586 263.095,111.489 269.625,113.375C269.679,114.975 269.718,116.575 269.75,118.176L269.82,120.876C269.513,124.802 267.444,126.897 264.625,129.375L263.039,130.801C261.765,131.922 260.48,133.032 259.188,134.133C255.802,137.095 252.53,140.171 249.25,143.25C244.957,147.277 240.649,151.276 236.25,155.188C232.354,158.664 228.657,162.29 225.023,166.039C223.141,167.872 221.247,169.555 219.246,171.25C215.28,174.692 211.58,178.358 207.887,182.086L206.036,183.953C203.489,186.528 200.945,189.107 198.406,191.69C191.547,198.661 178.028,211.457 178.028,211.457C178.028,211.457 173.865,214.957 172.813,214.839L77.29,188.48C77.29,188.48 76.15,187.794 75.586,187.441C74.858,186.985 73.814,186.303 72.921,185.743C71.99,185.159 70,183.938 70,183.938L66.997,182.06C23.592,154.913 23.592,154.913 -25.375,144.375C-30.53,174.959 -30.568,205.952 -30.62,236.878C-30.625,239.102 -30.633,241.326 -30.641,243.55C-30.778,262.937 -30.778,262.937 -29.484,282.266L-29.25,284.443C-28.763,288.333 -28.763,288.333 -26.375,291.375C-16.783,286.424 -9.911,279.212 -2.488,271.531C1.359,267.573 5.438,263.967 9.625,260.375C11.464,258.714 13.298,257.048 15.125,255.375C18.244,252.53 21.373,249.703 24.562,246.938C27.881,244.052 31.136,241.099 34.375,238.125L35.919,236.708C38.512,234.326 41.098,231.937 43.676,229.539C48.403,225.154 58.188,216.812 58.188,216.812C58.188,216.812 67.54,209.36 72.845,210.16C91.685,213.001 153.928,228.828 171.227,233.86ZM-180.09,181.328C-184.311,185.174 -187.882,189.205 -191.25,193.812L-192.81,195.924C-197.4,202.233 -201.515,208.758 -205.346,215.551C-206.019,216.744 -206.7,217.933 -207.389,219.117C-235.859,268.079 -243.076,332.974 -228.992,387.445C-222.615,411.19 -211.989,433.58 -197.375,453.375L-195.86,455.427C-194.402,457.381 -192.927,459.32 -191.438,461.25L-190.115,462.964C-187.498,466.249 -184.748,468.877 -181.375,471.375C-176.614,465.794 -174.032,460.699 -172.188,453.625L-171.435,450.814C-167.547,435.788 -166.176,420.935 -165.43,405.469L-165.304,402.921C-164.11,378.514 -163.323,354.091 -162.515,329.669C-162.316,323.641 -162.112,317.614 -161.905,311.587C-161.702,305.665 -161.503,299.742 -161.306,293.82C-161.223,291.35 -161.139,288.88 -161.055,286.411C-159.9,258.564 -159.9,258.564 -161.125,230.75L-161.392,227.877C-162.955,212.452 -165.595,194.545 -174.375,181.375C-176.774,180.319 -177.765,180.036 -180.09,181.328ZM-27.375,324.375C-27.641,337.505 -26.858,350.583 -26.125,363.688L-25.926,367.268C-25.021,383.372 -23.916,399.444 -22.375,415.5L-22.14,418.03C-21.259,427.383 -20.031,436.323 -17.375,445.375L-19.229,445.707C-55.141,452.286 -88.698,467.17 -116.375,491.375L-118.867,493.539C-123.103,497.286 -127.242,501.137 -131.312,505.062L-133.465,507.137C-135.651,509.699 -136.981,512.32 -138.375,515.375C-131.607,522.337 -124.866,529.088 -117.203,535.082C-114.769,537.056 -112.45,539.093 -110.125,541.191C-105.63,545.208 -100.958,548.9 -96.125,552.5L-93.524,554.44C-44.927,590.356 14.7,621.453 77,612.25C108.186,607.12 139.833,593.987 159.297,568.156C162.743,562.969 164.864,557.418 166.875,551.562L167.622,549.41C171.791,536.544 171.971,523.546 171.941,510.157C171.938,507.21 171.961,504.265 171.986,501.318C172.122,460.962 155.241,426.39 127.625,397.375L126.024,395.675C111.957,380.826 96.341,369.516 78.625,359.375L76.381,358.086C63.009,350.506 49.015,344.729 34.625,339.375L31.979,338.387C20.481,334.165 8.731,330.969 -3.125,327.938L-5.222,327.393C-12.677,325.468 -19.629,323.889 -27.375,324.375Z" style="fill:white;"/>
    </g>
    <g transform="matrix(1,0,0,1,3905,81)">
        <path d="M0,0C-0.584,7.164 -1.402,14.247 -2.488,21.352C-2.784,23.336 -3.08,25.321 -3.374,27.306C-3.604,28.851 -3.604,28.851 -3.839,30.427C-17.054,119.691 -15.846,209.878 -16.946,352.067C-17.029,363.182 -17.114,374.296 -17.2,385.411C-17.303,398.559 -17.404,411.706 -17.503,424.853C-17.513,426.275 -17.524,427.696 -17.535,429.118C-17.54,429.816 -17.545,430.514 -17.55,431.233C-17.586,435.979 -17.623,440.724 -17.66,445.469C-17.769,459.422 -17.862,473.375 -17.927,487.328C-17.966,494.777 -18.032,502.225 -18.124,509.673C-18.195,515.488 -18.246,521.303 -18.286,527.119C-18.311,530.573 -18.343,534.028 -18.4,537.482C-18.623,552.06 -18.086,566.205 -15.791,580.596C-15.597,581.867 -15.402,583.138 -15.201,584.448C-13.741,592.986 -13.741,592.986 -8,599C-6.263,600.214 -4.483,601.367 -2.668,602.461C-1.634,603.09 -0.6,603.718 0.465,604.366C1.57,605.029 2.674,605.692 3.812,606.375C4.975,607.08 6.136,607.786 7.297,608.493C9.687,609.948 12.079,611.401 14.471,612.853C23.711,618.466 32.865,624.218 42,630C42.92,630.579 43.841,631.157 44.789,631.753C47.37,633.383 49.937,635.031 52.5,636.688C53.266,637.169 54.033,637.65 54.822,638.146C56.906,639.512 56.906,639.512 60,642C60,648.587 55.008,653.047 51,658C50.561,658.545 50.122,659.09 49.67,659.651C42.956,667.906 35.654,675.432 28.073,682.891C23.504,687.412 19.34,692.052 15.375,697.117C11.628,701.666 7.552,705.901 3.49,710.168C-0.196,714.046 -3.766,717.997 -7.272,722.038C-10.06,725.204 -12.973,728.251 -15.875,731.312C-20.785,736.529 -25.433,741.84 -29.91,747.434C-44.417,765.248 -44.417,765.248 -50.477,766.52C-60.548,767.457 -65.646,763.452 -73.031,757.352C-73.698,756.787 -74.364,756.223 -75.051,755.642C-77.402,753.661 -79.813,751.769 -82.24,749.883C-83.961,748.544 -85.673,747.193 -87.383,745.84C-93.475,741.04 -99.658,736.358 -105.827,731.657C-109.387,728.942 -112.944,726.221 -116.5,723.5C-120.796,720.214 -125.093,716.929 -129.391,713.645C-140.853,704.885 -152.3,696.107 -163.688,687.25C-164.445,686.661 -165.202,686.073 -165.983,685.467C-169.908,682.414 -173.826,679.352 -177.73,676.273C-185.944,669.813 -194.155,663.585 -203,658C-202.624,656.599 -202.223,655.204 -201.812,653.812C-201.592,653.035 -201.372,652.258 -201.145,651.457C-198.892,646.62 -194.439,643.479 -190.497,640.007C-168.834,620.717 -151.602,590.423 -149.882,560.989C-149.805,558.714 -149.761,556.44 -149.719,554.164C-149.695,552.916 -149.695,552.916 -149.67,551.643C-149.455,540.384 -149.262,529.125 -149.068,517.866C-149.004,514.218 -148.938,510.571 -148.871,506.923C-147.851,450.461 -147.748,393.994 -147.711,337.525C-147.709,334.666 -147.707,331.808 -147.705,328.95C-147.704,327.886 -147.704,327.886 -147.703,326.801C-147.695,315.216 -147.669,303.632 -147.637,292.047C-147.604,279.949 -147.586,267.851 -147.583,255.753C-147.581,249.04 -147.572,242.327 -147.547,235.615C-145.767,191.346 -145.767,191.346 -153,148C-158.802,154.9 -164.532,161.83 -170,169C-186.43,165.768 -201.828,159.881 -217.438,153.93C-225.556,150.848 -233.302,147.936 -242,147C-243.346,146.838 -243.346,146.838 -244.719,146.672C-247.478,146.377 -250.232,146.188 -253,146C-253.942,145.876 -254.885,145.752 -255.855,145.625C-259.974,145.261 -262.781,145.097 -266.188,147.621C-268.331,149.97 -270.162,152.405 -272,155C-273.089,156.386 -273.089,156.386 -274.199,157.801C-282.205,168.192 -283.21,178.255 -282,191C-280.336,201.7 -277.58,212.204 -274.562,222.592C-274,225 -274,225 -274,229L-191,229C-190.919,260.978 -190.919,260.978 -190.902,274.354C-190.89,283.598 -190.876,292.842 -190.849,302.086C-190.829,308.818 -190.816,315.55 -190.812,322.282C-190.809,325.847 -190.803,329.412 -190.789,332.978C-190.772,336.955 -190.772,340.932 -190.773,344.909C-190.766,346.096 -190.759,347.282 -190.751,348.504C-190.754,349.585 -190.757,350.666 -190.759,351.78C-190.757,353.192 -190.757,353.192 -190.754,354.632C-191,357 -191,357 -193,360C-196.012,360.361 -196.012,360.361 -199.928,360.341C-200.997,360.341 -200.997,360.341 -202.087,360.342C-204.446,360.34 -206.805,360.316 -209.164,360.293C-210.798,360.287 -212.432,360.283 -214.066,360.28C-218.37,360.269 -222.673,360.239 -226.977,360.206C-231.368,360.175 -235.758,360.162 -240.148,360.146C-248.766,360.114 -257.383,360.063 -266,360C-265.836,360.509 -265.672,361.019 -265.503,361.544C-264.829,364.837 -264.911,367.939 -264.947,371.301C-264.956,372.403 -264.956,372.403 -264.966,373.528C-264.989,375.98 -265.02,378.431 -265.051,380.883C-265.069,382.625 -265.088,384.368 -265.105,386.11C-265.156,390.806 -265.214,395.501 -265.275,400.197C-265.312,403.125 -265.349,406.052 -265.385,408.98C-266.549,502.024 -270.497,591.916 -318,739C-318.321,739.965 -318.642,740.93 -318.973,741.925C-340.612,806.966 -365.694,870.736 -391.301,934.295C-393.369,939.428 -395.427,944.565 -397.48,949.703C-398.789,952.972 -400.107,956.236 -401.429,959.499C-402.011,960.941 -402.59,962.385 -403.165,963.83C-403.929,965.749 -404.708,967.662 -405.488,969.574C-405.906,970.612 -406.324,971.649 -406.755,972.718C-408,975 -408,975 -411,976C-412.787,975.323 -412.787,975.323 -414.773,974.191C-415.509,973.778 -416.245,973.364 -417.003,972.938C-417.786,972.484 -418.569,972.03 -419.375,971.562C-420.182,971.105 -420.989,970.648 -421.821,970.177C-426.582,967.461 -431.245,964.621 -435.875,961.688C-440.963,958.47 -446.059,956.194 -451.734,954.203C-454,953 -454,953 -454.687,951.168C-455.228,947.425 -453.993,943.876 -453.078,940.262C-452.63,938.419 -452.183,936.576 -451.735,934.734C-451.494,933.752 -451.252,932.77 -451.003,931.759C-425.869,829.244 -415.127,725.143 -410.458,571.105C-410.437,569.88 -410.416,568.654 -410.394,567.391C-409.912,538.931 -409.819,510.472 -409.8,482.008C-409.797,477.798 -409.793,473.588 -409.788,469.379C-409.776,457.612 -409.766,445.845 -409.762,434.078C-409.762,433.339 -409.762,432.601 -409.762,431.839C-409.762,431.099 -409.761,430.359 -409.761,429.596C-409.761,428.098 -409.76,426.6 -409.76,425.102C-409.759,423.988 -409.759,423.988 -409.759,422.85C-409.755,410.699 -409.738,398.549 -409.714,386.398C-409.691,373.783 -409.678,361.167 -409.677,348.552C-409.676,341.524 -409.671,334.495 -409.652,327.466C-409.635,320.893 -409.634,314.319 -409.642,307.746C-409.643,305.35 -409.639,302.955 -409.629,300.56C-409.512,270.63 -414.339,242.036 -435,219C-435.755,218.126 -436.511,217.252 -437.289,216.352C-441.261,211.821 -445.222,207.675 -450,204C-448.303,199.904 -445.443,196.8 -442.562,193.5C-442.03,192.884 -441.497,192.268 -440.948,191.634C-435.746,185.65 -430.382,179.821 -425,174C-419.545,168.059 -414.326,161.994 -409.254,155.723C-407.049,153.059 -404.768,150.492 -402.438,147.938C-398.835,143.981 -395.472,139.896 -392.16,135.695C-389.682,132.603 -387.131,129.58 -384.562,126.562C-381.186,122.596 -377.846,118.607 -374.562,114.562C-371.155,110.372 -367.659,106.271 -364.125,102.188C-360.119,97.553 -356.252,92.842 -352.5,88C-348.265,82.536 -343.86,77.254 -339.331,72.032C-336.392,68.641 -333.542,65.202 -330.75,61.688C-324.912,54.498 -318.448,47.883 -312.066,41.18C-308.216,37.118 -304.411,33.012 -300.605,28.909C-299.554,27.78 -298.495,26.657 -297.428,25.543C-296.122,24.132 -294.921,22.626 -293.734,21.113C-289.625,17.938 -285.996,18.292 -280.938,18.438C-279.913,18.457 -278.888,18.476 -277.832,18.497C-241.591,19.628 -204.96,29.191 -169.507,36.278C-167.074,36.764 -164.641,37.249 -162.207,37.734C-155.031,39.166 -147.856,40.601 -140.685,42.062C-137.7,42.668 -134.713,43.266 -131.727,43.863C-130.338,44.143 -128.95,44.425 -127.562,44.712C-101.429,50.103 -82.464,41.745 -59.879,29.227C-53.973,25.963 -47.995,22.848 -42,19.75C-26.685,12.159 -26.685,12.159 -12.688,2.5C-8.618,-0.766 -5.001,-0.51 0,0Z" style="fill:white;fill-rule:nonzero;"/>
    </g>
    <g transform="matrix(1,0,0,1,952,81)">
        <path d="M0,0C-0.287,1.944 -0.287,1.944 -0.579,3.927C-5.614,38.167 -10.203,72.286 -12.688,106.812C-12.749,107.659 -12.81,108.506 -12.872,109.379C-14.337,130.021 -15.131,150.688 -15.562,171.375C-15.583,172.361 -15.604,173.347 -15.626,174.363C-16.467,215.536 -16.732,256.849 -15,298C-7.667,292.282 -0.383,286.516 6.812,280.625C14.308,274.504 21.96,268.61 29.674,262.767C32.158,260.88 34.634,258.982 37.109,257.082C47.724,248.944 58.41,240.924 69.34,233.212C71.134,231.94 71.134,231.94 73.184,230.082C75,229 75,229 77.438,229.137C96.625,235.601 110.747,256.256 122.484,271.703C125.037,275.06 127.639,278.376 130.25,281.688C130.703,282.265 131.156,282.842 131.622,283.438C134.155,286.668 136.707,289.881 139.281,293.078C187.417,353.282 213.945,428.511 220,505C220.131,506.611 220.131,506.611 220.265,508.255C221.162,520.623 221.202,532.98 221.188,545.375C221.186,547.047 221.186,547.047 221.184,548.754C221.149,564.919 221.071,580.944 219,597C218.872,598.001 218.872,598.001 218.742,599.023C210.643,661.831 192.896,722.838 168,781C167.501,782.165 167.003,783.331 166.489,784.531C153.297,815.143 99.33,938.153 73,949C64.546,950.008 57.061,948.32 49.062,945.75C47.383,945.23 47.383,945.23 45.67,944.698C43.179,943.921 40.69,943.136 38.205,942.34C34.35,941.107 30.486,939.904 26.621,938.703C23.212,937.641 19.807,936.566 16.402,935.487C14.719,934.954 13.034,934.425 11.348,933.9C8.975,933.157 6.608,932.399 4.242,931.637C3.164,931.304 3.164,931.304 2.065,930.965C0.082,930.315 0.082,930.315 -3,929C-4,926 -4,926 -2.734,923.355C1.76,916.181 6.605,909.504 11.895,902.898C60.551,842.081 92.405,770.221 103,693C103.246,691.267 103.246,691.267 103.496,689.499C108.258,654.48 108.484,616.94 103,582C102.828,580.884 102.657,579.769 102.48,578.62C96.718,542.302 85.209,507.958 69,475C68.513,474.001 68.025,473.002 67.523,471.973C58.018,452.631 46.532,434.77 33,418C32.277,417.096 31.554,416.193 30.809,415.262C28.564,412.487 26.289,409.739 24,407C23.544,406.452 23.087,405.904 22.617,405.339C16.524,398.042 10.252,391.102 3.457,384.453C0.744,381.745 -1.745,378.907 -4.23,375.992C-7.639,372.155 -11.335,368.591 -15,365C-15.902,372.523 -16.185,379.969 -16.265,387.542C-16.282,388.758 -16.298,389.975 -16.315,391.228C-16.35,393.861 -16.384,396.493 -16.415,399.126C-16.465,403.334 -16.522,407.542 -16.581,411.75C-16.735,422.97 -16.882,434.191 -17.022,445.411C-17.14,454.903 -17.266,464.395 -17.402,473.887C-17.412,474.596 -17.423,475.306 -17.433,476.037C-17.718,495.894 -18.243,515.713 -19.474,535.536C-20.188,547.082 -20.559,558.356 -18.379,569.765C-18.1,571.409 -17.878,573.063 -17.687,574.72C-16.552,584.451 -15.308,593.881 -7.332,600.352C-2.501,603.696 2.597,606.51 7.786,609.257C13.103,612.141 18.152,615.437 23.25,618.688C25.242,619.931 27.235,621.172 29.23,622.41C34.683,625.801 40.128,629.205 45.562,632.625C46.318,633.098 47.073,633.57 47.851,634.057C52.35,636.892 56.7,639.87 61,643C56.062,652.662 48.503,660.576 41.238,668.543C39.765,670.16 38.304,671.787 36.855,673.426C32.719,678.099 28.452,682.568 24,686.938C20.347,690.533 16.943,694.166 13.75,698.188C7.914,705.531 1.355,712.2 -5.102,718.993C-9.464,723.605 -13.724,728.309 -18,733C-19.832,735.001 -21.666,737.001 -23.5,739C-24.411,739.995 -25.323,740.99 -26.234,741.984C-28.117,744.039 -30.003,746.09 -31.891,748.141C-41.328,758.248 -41.328,758.248 -50,769C-62.416,767.501 -72.61,758.665 -82,751C-82.617,750.497 -83.235,749.993 -83.871,749.475C-86.532,747.303 -89.193,745.132 -91.851,742.956C-97.086,738.691 -102.44,734.613 -107.861,730.588C-112.94,726.813 -117.95,722.958 -122.938,719.062C-130.945,712.81 -139.004,706.629 -147.081,700.467C-149.892,698.318 -152.696,696.159 -155.5,694C-162.508,688.605 -169.531,683.231 -176.56,677.864C-178.294,676.54 -180.027,675.215 -181.761,673.89C-184.631,671.697 -187.503,669.504 -190.375,667.312C-191.285,666.617 -192.195,665.921 -193.133,665.205C-193.984,664.556 -194.834,663.907 -195.711,663.238C-196.845,662.373 -196.845,662.373 -198.001,661.49C-199.631,660.275 -201.309,659.127 -203,658C-201.928,648.887 -194.55,643.295 -187.938,637.75C-163.065,615.117 -151.739,580.754 -150.091,548.061C-149.844,542.48 -149.779,536.897 -149.719,531.312C-149.701,529.916 -149.683,528.519 -149.664,527.123C-149.615,523.35 -149.571,519.577 -149.528,515.804C-149.48,511.745 -149.429,507.686 -149.378,503.628C-149.28,495.765 -149.187,487.902 -149.096,480.039C-149.021,473.679 -148.945,467.32 -148.868,460.96C-148.403,422.719 -147.977,384.477 -147.684,346.234C-147.678,345.504 -147.672,344.774 -147.667,344.022C-147.556,329.632 -147.452,315.242 -147.365,300.852C-147.082,254.535 -147.082,254.535 -146.222,235.505C-144.428,195.129 -151.718,158.638 -162.258,119.906C-162.489,119.056 -162.72,118.206 -162.958,117.33C-164.355,112.235 -165.839,107.174 -167.401,102.128C-168.104,99.629 -168.401,97.345 -168.375,94.75C-168.387,93.598 -168.387,93.598 -168.398,92.422C-167.823,88.922 -167.043,86.961 -165,84C-161.829,81.774 -158.417,80.127 -154.938,78.438C-153.924,77.927 -152.91,77.417 -151.866,76.891C-148.586,75.244 -145.293,73.622 -142,72C-139.787,70.896 -137.575,69.791 -135.363,68.684C-132.049,67.025 -128.734,65.367 -125.416,63.714C-115.864,58.954 -106.41,54.033 -97,49C-96.021,48.478 -95.042,47.957 -94.033,47.419C-78.559,39.168 -63.225,30.702 -48,22C-46.807,21.319 -45.615,20.637 -44.422,19.956C-36.997,15.715 -36.997,15.715 -29.577,11.467C-27.379,10.209 -25.18,8.953 -22.98,7.7C-21.094,6.624 -19.213,5.542 -17.336,4.45C-16.55,3.999 -15.763,3.547 -14.953,3.082C-14.287,2.695 -13.621,2.308 -12.935,1.909C-8.805,-0.032 -4.507,0 0,0Z" style="fill:white;fill-rule:nonzero;"/>
    </g>
    <g transform="matrix(1,0,0,1,3250.09375,132.542969)">
        <path d="M0,0C6.921,6.483 12.062,14.461 17.384,22.247C18.805,24.309 20.248,26.352 21.707,28.387C47.324,64.123 70.371,101.587 90.906,140.457C91.464,141.505 92.021,142.553 92.596,143.633C133.353,220.368 162.614,303.368 195.781,493.582C195.901,494.76 196.022,495.937 196.146,497.151C198.331,520.11 198.331,520.11 191.32,528.863C187.833,532.799 183.83,535.482 179.406,538.27C177.797,539.315 176.189,540.362 174.582,541.41C173.79,541.924 172.998,542.438 172.182,542.967C162.37,549.392 153.293,556.487 144.429,564.152C139.479,568.394 134.376,572.462 129.305,576.559C105.955,595.5 83.568,615.788 64.906,639.457C64.003,640.559 63.098,641.659 62.191,642.758C45.206,663.453 30.907,686.088 17.906,709.457C11.05,708.093 4.689,706.119 -1.844,703.645C-2.882,703.252 -3.921,702.859 -4.991,702.455C-17.555,697.62 -29.781,692.037 -42.007,686.416C-44.195,685.41 -46.384,684.408 -48.574,683.406C-57.226,679.446 -65.871,675.474 -74.512,671.49C-79.226,669.316 -83.944,667.149 -88.664,664.988C-100.245,659.68 -111.802,654.36 -123.094,648.457C-124.135,647.921 -124.135,647.921 -125.198,647.375C-136.846,641.347 -147.259,634.236 -157.676,626.289C-160.934,623.82 -164.23,621.407 -167.529,618.994C-170.677,616.688 -173.815,614.367 -176.95,612.044C-178.323,611.028 -179.697,610.014 -181.073,609.003C-198.313,596.316 -198.313,596.316 -201.094,586.457C-201.301,583.974 -201.409,581.482 -201.448,578.99C-201.462,578.258 -201.476,577.525 -201.49,576.77C-201.535,574.321 -201.565,571.871 -201.596,569.422C-201.625,567.655 -201.655,565.888 -201.686,564.121C-201.767,559.297 -201.836,554.474 -201.902,549.65C-201.975,544.52 -202.058,539.39 -202.139,534.261C-202.293,524.38 -202.436,514.498 -202.575,504.617C-202.686,496.69 -202.801,488.764 -202.919,480.838C-203.908,414.041 -204.573,347.262 -204.094,280.457C-203.264,280.07 -202.435,279.683 -201.58,279.284C-197.733,277.489 -193.886,275.694 -190.039,273.898C-189.348,273.576 -188.657,273.254 -187.946,272.921C-180.492,269.443 -173.038,265.965 -165.586,262.484C-163.38,261.454 -161.175,260.424 -158.969,259.395C-158.367,259.114 -157.766,258.833 -157.146,258.543C-149.356,254.907 -141.562,251.281 -133.762,247.666C-122.915,242.639 -112.084,237.579 -101.269,232.482C-96.269,230.126 -91.268,227.773 -86.266,225.42C-83.511,224.124 -80.757,222.827 -78.003,221.529C-74.783,220.011 -71.559,218.498 -68.334,216.99C-66.592,216.173 -64.851,215.351 -63.111,214.529C-57.186,211.763 -51.346,209.379 -45.094,207.457C-50.777,194.673 -57.151,182.967 -65.094,171.457C-65.632,170.672 -66.169,169.887 -66.724,169.079C-78.337,152.168 -90.478,135.633 -103.094,119.457C-103.984,118.307 -104.875,117.158 -105.766,116.008C-110.192,110.315 -114.69,104.724 -119.406,99.27C-143.094,71.768 -143.094,71.768 -143.094,65.457C-128.06,57.067 -112.997,48.74 -97.844,40.566C-94.106,38.55 -90.377,36.519 -86.656,34.473C-74.385,27.727 -62.005,21.218 -49.559,14.801C-43.101,11.469 -36.672,8.085 -30.267,4.652C-9.011,-6.641 -9.011,-6.641 0,0ZM-45.094,268.457C-46.064,269.333 -46.064,269.333 -47.055,270.227C-75.138,296.266 -82.554,340.148 -84.094,376.457C-84.311,383.768 -84.337,391.081 -84.344,398.395C-84.345,399.415 -84.347,400.436 -84.349,401.488C-84.351,424.258 -82.923,446.849 -80.286,469.462C-79.261,478.271 -78.75,486.963 -78.703,495.838C-78.467,505.662 -76.205,514.418 -69.094,521.457C-66.801,523.474 -64.423,525.329 -61.969,527.145C-61.273,527.661 -60.577,528.178 -59.86,528.711C-51.671,534.662 -42.945,539.573 -34.094,544.457C-32.307,545.458 -30.521,546.459 -28.734,547.461C-8.797,558.569 10.982,567.94 32.906,574.457C33.587,574.659 34.267,574.862 34.969,575.07C41.382,576.913 47.65,577.663 54.281,578.023C55.017,578.066 55.753,578.109 56.512,578.153C58.31,578.258 60.108,578.358 61.906,578.457C62.417,517.239 57.493,458 42.906,398.457C42.462,396.636 42.462,396.636 42.009,394.778C31.067,350.501 14.652,307.787 -4.656,266.52C-4.954,265.883 -5.252,265.246 -5.559,264.59C-8.822,257.088 -8.822,257.088 -13.969,251.02C-26.464,247.712 -36.892,260.551 -45.094,268.457Z" style="fill:white;fill-rule:nonzero;"/>
    </g>
    <g transform="matrix(1,0,0,1,4044,310)">
        <path d="M0,0C4.843,0.564 8.798,2.048 13.105,4.238C13.795,4.587 14.484,4.936 15.194,5.295C24.664,10.228 33.453,16.253 42.312,22.188C44.222,23.457 46.132,24.726 48.042,25.995C54.038,29.981 60.021,33.989 66,38C67.504,39.009 67.504,39.009 69.039,40.038C81.721,48.541 94.396,57.057 107.017,65.65C108.261,66.497 109.507,67.343 110.754,68.187C112.19,69.158 113.621,70.137 115.051,71.117C115.774,71.611 116.498,72.104 117.243,72.613C122.649,76.881 123.53,82.418 124.41,88.961C123.26,97.48 116.207,105.288 111.373,112.162C99.51,129.495 99.157,150.973 97.062,171.25C96.922,172.591 96.781,173.933 96.641,175.274C93.187,208.187 90.025,241.131 86.83,274.07C86.625,276.187 86.42,278.304 86.214,280.42C85.421,288.581 84.631,296.742 83.846,304.903C83.603,307.422 83.359,309.941 83.115,312.46C76.706,375.036 76.706,375.036 102,431C103.013,432.272 103.013,432.272 104.047,433.57C115.985,447.752 133.001,453.201 150,459C150.097,457.738 150.193,456.475 150.293,455.175C150.919,449.593 152.541,444.513 154.316,439.203C154.649,438.184 154.981,437.166 155.323,436.116C156.031,433.946 156.742,431.778 157.457,429.61C159.317,423.956 161.144,418.291 162.969,412.625C163.505,410.962 163.505,410.962 164.051,409.265C168.111,396.613 171.76,383.889 175,371C175.437,369.275 175.437,369.275 175.883,367.514C190.593,308.763 197.499,248.433 200,188C200.034,187.201 200.068,186.402 200.103,185.578C200.313,180.585 200.503,175.591 200.669,170.596C200.722,169.024 200.778,167.453 200.839,165.881C201.329,152.792 201.766,138.672 195,127C194.385,125.915 194.385,125.915 193.758,124.809C187.289,114.301 177.585,106.544 168,99C172.654,83.256 187.005,69.423 197.229,56.896C201.432,51.734 205.51,46.489 209.551,41.199C216.664,31.888 223.973,22.735 231.409,13.68C235.066,9.211 238.568,4.644 242,0C246.818,0.549 250.653,2.023 254.875,4.312C255.849,4.837 255.849,4.837 256.843,5.372C264.036,9.383 270.425,14.371 276.92,19.406C292.72,31.515 309.261,42.765 325.758,53.895C353.861,72.861 353.861,72.861 360,79C361.13,90.754 355.578,101.06 350.559,111.302C347.821,117.004 345.531,122.721 343.562,128.73C343.265,129.632 342.967,130.534 342.661,131.463C339.687,140.664 337.323,149.994 335.031,159.383C329.448,182.162 323.125,204.657 316,227C315.769,227.726 315.538,228.451 315.3,229.199C306.534,256.634 295.835,283.328 285,310C284.652,310.857 284.304,311.714 283.945,312.597C259.935,371.636 233.621,430.457 202.572,486.168C200.873,489.228 199.196,492.299 197.52,495.371C188.479,511.881 178.905,527.998 169,544C168.474,544.854 167.947,545.709 167.405,546.589C154.071,568.199 139.927,589.457 125,610C124.447,610.763 123.893,611.526 123.323,612.312C115.762,622.713 108.055,632.977 100,643C99.486,643.64 98.972,644.281 98.442,644.94C91.543,653.516 84.545,662.001 77.395,670.367C75.927,672.086 74.463,673.808 73,675.531C67.588,681.89 62.107,688.163 56.449,694.305C54.523,696.425 52.644,698.569 50.773,700.738C36.144,717.489 16.384,738.674 -5,747C-16.986,747.676 -25.002,739.724 -33.389,732.393C-35.719,730.378 -38.107,728.439 -40.5,726.5C-44.563,723.194 -48.573,719.832 -52.562,716.438C-57.169,712.522 -61.831,708.693 -66.57,704.938C-69.07,702.944 -71.536,700.912 -74,698.875C-84.743,690.07 -95.703,681.495 -107.031,673.453C-109,672 -109,672 -111,670C-111.125,666.875 -111.125,666.875 -111,664C-104.105,660.763 -97.138,657.824 -90.043,655.056C-31.886,632.361 26.595,603.535 72.855,560.957C74.799,559.183 76.792,557.498 78.812,555.812C82.684,552.439 86.183,548.747 89.688,545C90.234,544.418 90.781,543.837 91.345,543.238C94.921,539.365 98.013,535.344 101,531C100.157,530.743 99.314,530.487 98.445,530.223C94.749,528.911 91.347,527.238 87.875,525.438C49.932,506.258 9.186,493.409 -31.562,481.625C-32.966,481.218 -32.966,481.218 -34.399,480.804C-38.854,479.516 -43.313,478.243 -47.78,476.994C-55.944,474.684 -63.62,472.321 -71,468C-68.985,461.13 -66.088,455.064 -62.75,448.75C-48.535,420.987 -44.38,391.892 -43.516,361.039C-43.495,360.325 -43.475,359.611 -43.454,358.875C-42.712,332.207 -42.417,305.526 -42.037,278.85C-41.961,273.514 -41.881,268.177 -41.8,262.84C-41.518,244.364 -41.266,225.888 -41.07,207.411C-41.032,203.846 -40.992,200.281 -40.948,196.716C-40.847,188.532 -40.766,180.348 -40.718,172.164C-40.701,169.678 -40.676,167.192 -40.644,164.706C-40.447,148.738 -40.662,135.902 -49.633,122.121C-51,120 -51,120 -51.93,117.848C-53.286,115.506 -54.566,115.101 -57,114C-58.218,112.972 -59.404,111.906 -60.562,110.812C-65.299,106.551 -70.561,103.289 -76,100C-75.566,94.7 -72.658,91.219 -69.625,87.062C-69.086,86.313 -68.546,85.563 -67.99,84.79C-60.083,73.873 -51.647,63.485 -42.832,53.293C-38.788,48.609 -34.896,43.806 -31,39C-29.969,37.739 -28.938,36.479 -27.906,35.219C-21.92,27.897 -16.037,20.516 -10.301,12.996C-6.933,8.611 -3.475,4.3 0,0Z" style="fill:white;fill-rule:nonzero;"/>
    </g>
    <g transform="matrix(1,0,0,1,2789.132812,313.847656)">
        <path d="M0,0C11.158,3.94 21.701,9.306 32.314,14.501C40.077,18.301 47.89,21.977 55.742,25.59C65.673,30.168 75.535,34.868 85.367,39.652C98.61,46.094 111.936,52.338 125.308,58.508C155.741,72.568 185.92,87.085 215.867,102.152C216.042,108.928 216.042,108.928 214.469,110.945C213.816,111.406 213.164,111.866 212.492,112.34C193.102,127.722 182.606,152.334 179.581,176.43C178.979,182.226 178.702,187.953 178.662,193.778C178.652,194.687 178.642,195.596 178.632,196.533C178.6,199.524 178.576,202.516 178.551,205.508C178.53,207.632 178.509,209.757 178.487,211.882C178.432,217.536 178.382,223.19 178.334,228.845C178.305,232.34 178.274,235.835 178.243,239.331C178.112,253.97 177.995,268.609 177.889,283.248C177.869,285.949 177.848,288.651 177.828,291.352C177.766,299.447 177.715,307.541 177.691,315.635C177.684,317.819 177.673,320.003 177.659,322.186C177.489,350.513 180.698,372.792 200.867,394.152C201.969,395.365 203.07,396.58 204.168,397.797C210.959,405.269 217.778,412.061 225.867,418.152C224.589,427.129 218.198,434.248 211.809,440.285C210.006,442.018 208.41,443.801 206.805,445.715C202.63,450.583 198.037,455.035 193.461,459.522C190.49,462.452 187.615,465.401 184.918,468.586C179.65,474.638 173.968,480.298 168.328,486C167.734,486.601 167.14,487.201 166.528,487.82C163.394,490.987 160.256,494.149 157.115,497.309C154.521,499.921 151.936,502.541 149.358,505.169C146.232,508.355 143.091,511.527 139.939,514.689C138.743,515.893 137.553,517.102 136.368,518.317C134.716,520.007 133.047,521.677 131.373,523.344C130.887,523.849 130.402,524.355 129.902,524.875C128.509,526.238 128.509,526.238 125.867,528.152C117.13,527.744 110.234,519.786 104.68,513.715C101.543,510.24 98.478,506.706 95.43,503.152C90.762,497.747 85.598,492.799 80.517,487.786C78.292,485.583 76.08,483.367 73.867,481.152C72.821,480.106 71.775,479.06 70.729,478.014C62.442,469.727 54.155,461.44 45.867,453.152C42.501,454.388 39.781,455.754 36.926,457.918C36.188,458.471 35.45,459.024 34.69,459.594C33.903,460.191 33.116,460.787 32.305,461.402C25.585,466.426 18.815,471.357 11.93,476.152C10.691,477.015 10.691,477.015 9.428,477.895C7.751,479.062 6.074,480.228 4.396,481.394C-0.687,484.929 -5.759,488.481 -10.828,492.036C-14.78,494.808 -18.737,497.572 -22.711,500.312C-29.395,504.941 -35.931,509.638 -42.133,514.902C-42.931,515.576 -42.931,515.576 -43.746,516.263C-46.114,518.294 -48.324,520.36 -50.441,522.652C-53.526,525.912 -55.646,527.919 -60.164,528.629C-93.262,527.642 -130.304,501.816 -156.133,483.152C-156.871,482.62 -157.608,482.088 -158.369,481.54C-168.745,474.03 -178.911,466.27 -188.996,458.375C-194.314,454.218 -199.715,450.178 -205.133,446.152C-204.01,437.089 -201.512,429.095 -198.258,420.59C-188.112,393.047 -186.793,366.376 -186.935,337.229C-186.945,334.939 -186.952,332.649 -186.958,330.358C-186.985,318.956 -187.05,307.554 -187.133,296.152C-187.139,295.319 -187.145,294.486 -187.151,293.627C-187.235,282.029 -187.346,270.431 -187.481,258.833C-187.508,256.491 -187.531,254.15 -187.554,251.809C-187.266,207.989 -187.266,207.989 -203.301,167.992C-205.664,164.329 -206.032,162.001 -205.809,157.719C-203.435,148.704 -191.449,142.474 -184.258,137.195C-175.228,130.564 -166.528,123.552 -158.018,116.271C-154.213,113.028 -150.328,109.909 -146.383,106.84C-140.366,102.158 -134.468,97.345 -128.593,92.487C-121.801,86.871 -114.963,81.312 -108.117,75.761C-104.787,73.061 -101.46,70.356 -98.133,67.652C-96.799,66.569 -95.466,65.486 -94.133,64.402C-93.473,63.866 -92.813,63.33 -92.133,62.777C-86.133,57.902 -86.133,57.902 -84.132,56.276C-82.802,55.196 -81.473,54.116 -80.144,53.036C-76.749,50.277 -73.353,47.519 -69.957,44.762C-62.337,38.574 -54.726,32.374 -47.133,26.152C-44.384,23.903 -41.634,21.653 -38.883,19.406C-37.044,17.899 -35.211,16.386 -33.383,14.867C-11.63,-3.147 -11.63,-3.147 0,0ZM-34.133,124.152C-53.832,159.584 -61.641,187.908 -61.531,228.688C-61.532,231.386 -61.536,234.084 -61.54,236.783C-61.545,242.401 -61.538,248.019 -61.524,253.637C-61.508,260.07 -61.513,266.502 -61.529,272.934C-61.543,278.527 -61.545,284.119 -61.537,289.711C-61.532,293.021 -61.533,296.33 -61.542,299.64C-61.628,340.883 -53.176,373.427 -26.133,405.152C-25.386,406.117 -25.386,406.117 -24.625,407.102C-18.391,415.028 -9.097,422.038 0.992,423.652C15.965,421.72 31.566,412.26 41.742,401.277C47.012,393.528 48.998,385.341 48.987,376.035C48.987,374.84 48.987,373.645 48.987,372.413C48.978,370.476 48.978,370.476 48.969,368.5C48.965,367.118 48.961,365.737 48.958,364.356C48.904,348.901 48.607,333.45 48.294,317.999C48.211,313.869 48.132,309.739 48.051,305.61C47.917,298.683 47.779,291.757 47.64,284.831C47.482,276.924 47.327,269.018 47.174,261.111C47.024,253.378 46.872,245.645 46.719,237.912C46.655,234.68 46.591,231.447 46.529,228.214C46.498,226.668 46.468,225.122 46.438,223.576C46.423,222.82 46.409,222.064 46.394,221.286C46.321,217.58 46.241,213.875 46.146,210.17C46.11,208.726 46.074,207.283 46.038,205.839C46.02,205.13 46.003,204.42 45.984,203.69C45.883,199.182 45.865,194.681 45.9,190.173C45.918,187.129 45.903,184.086 45.883,181.043C45.883,179.61 45.898,178.177 45.93,176.745C46.268,168.692 46.268,168.692 42.904,161.7C38.989,158.503 34.883,156.152 30.078,154.543C23.455,152.097 17.582,148.758 11.492,145.215C9.402,144.042 7.309,142.872 5.215,141.707C-2.222,137.548 -9.638,133.352 -17.05,129.151C-17.953,128.639 -18.855,128.128 -19.785,127.602C-20.579,127.151 -21.373,126.701 -22.191,126.237C-25.172,124.572 -26.849,124.035 -30.258,124.09C-32.176,124.121 -32.176,124.121 -34.133,124.152Z" style="fill:white;fill-rule:nonzero;"/>
    </g>
    <g transform="matrix(1,0,0,1,1375.878906,310.191406)">
        <path d="M0,0C4.838,1.844 8.943,4.806 13.121,7.809C14.117,8.523 14.117,8.523 15.133,9.252C24.462,15.982 33.616,22.938 42.746,29.934C51.047,36.291 59.48,42.411 68.065,48.377C71.573,50.819 75.066,53.282 78.559,55.746C79.255,56.237 79.952,56.729 80.67,57.235C86.678,61.479 92.643,65.78 98.601,70.094C103.655,73.753 108.725,77.389 113.807,81.009C117.714,83.795 121.603,86.605 125.488,89.422C138.436,98.807 151.515,108.001 164.728,117.009C167.851,119.139 170.968,121.279 174.084,123.419C175.895,124.654 177.716,125.871 179.543,127.082C186.452,131.806 191.069,136.591 194.156,144.439C194.108,149.115 192.148,150.566 188.925,153.772C188.155,154.503 187.384,155.235 186.59,155.988C185.806,156.76 185.022,157.531 184.214,158.326C181.699,160.796 179.161,163.24 176.621,165.684C174.115,168.125 171.613,170.571 169.113,173.019C167.557,174.54 165.995,176.057 164.429,177.567C159.734,182.115 155.36,186.835 151.121,191.809C148.14,195.159 145.13,198.483 142.121,201.809C141.208,202.828 140.295,203.848 139.383,204.867C138.442,205.91 137.5,206.953 136.559,207.996C135.712,208.938 134.865,209.881 133.992,210.852C131.862,213.127 129.599,215.166 127.234,217.195C123.164,220.702 119.506,224.483 115.871,228.434C115.228,229.126 114.586,229.818 113.924,230.531C112.615,231.943 111.307,233.356 110.002,234.771C108.249,236.67 106.491,238.564 104.73,240.457C103.694,241.574 102.657,242.691 101.621,243.809C101.166,244.299 100.71,244.79 100.241,245.295C98.372,247.321 96.512,249.346 94.732,251.451C87.883,259.527 80.175,266.812 72.655,274.254C65.918,280.927 59.237,287.552 53.121,294.809C50.674,297.517 48.211,300.21 45.746,302.902C44.398,304.395 43.051,305.891 41.755,307.43C34.962,315.449 27.294,322.668 19.806,330.028C5.208,342.605 5.208,342.605 -2.879,358.809C0.04,365.395 6.076,369.36 12.121,372.809C13.299,373.489 13.299,373.489 14.5,374.184C28.73,381.858 44.362,381.972 60.163,381.922C62.01,381.922 62.01,381.922 63.893,381.923C67.223,381.922 70.553,381.917 73.882,381.91C77.379,381.904 80.876,381.903 84.372,381.902C90.973,381.899 97.574,381.891 104.176,381.881C111.699,381.869 119.223,381.864 126.747,381.859C142.205,381.849 157.663,381.831 173.121,381.809C171.621,386.584 169.647,390.4 166.809,394.496C166.37,395.14 165.931,395.784 165.479,396.447C164.527,397.842 163.573,399.234 162.616,400.625C161.106,402.831 159.617,405.05 158.133,407.273C151.736,416.805 145.007,426.009 138.002,435.103C132.3,442.521 126.873,450.1 121.535,457.783C120.138,459.784 118.728,461.774 117.312,463.762C110.644,473.128 104.157,482.609 97.707,492.126C92.641,499.594 87.527,507.027 82.371,514.434C81.388,515.845 81.388,515.845 80.386,517.286C76.994,522.149 73.578,526.992 70.121,531.809C63.45,531.34 57.328,530.301 50.945,528.316C50.091,528.055 49.237,527.793 48.358,527.523C37.661,524.154 27.312,519.914 16.934,515.684C14.733,514.794 12.532,513.906 10.33,513.018C3.588,510.295 -3.146,507.555 -9.879,504.809C-10.892,504.395 -11.906,503.982 -12.95,503.556C-21.762,499.96 -30.571,496.359 -39.379,492.751C-51.363,487.847 -63.367,482.997 -75.391,478.191C-76.103,477.907 -76.815,477.622 -77.549,477.329C-84.605,474.509 -91.662,471.693 -98.721,468.883C-113.49,463.003 -128.226,457.056 -142.9,450.944C-154.511,446.11 -166.188,441.445 -177.879,436.809C-177.464,426.966 -176.664,417.201 -175.574,407.41C-175.449,406.284 -175.324,405.159 -175.195,403.999C-174.675,399.347 -174.149,394.695 -173.614,390.044C-169.406,353.313 -167.36,316.737 -167.488,279.766C-167.505,274.802 -167.495,269.839 -167.477,264.876C-167.37,228.369 -169.475,192.226 -174.004,155.996C-174.532,151.678 -175.054,147.359 -175.574,143.039C-175.696,142.04 -175.817,141.04 -175.942,140.011C-176.717,133.524 -177.28,127.066 -177.661,120.544C-177.85,118.168 -178.198,115.974 -178.715,113.652C-179.405,109.37 -179.384,106.917 -177.879,102.809C-172.698,97.474 -165.967,93.913 -159.536,90.301C-157.341,89.068 -155.193,87.796 -153.059,86.461C-149.371,84.172 -145.636,81.981 -141.879,79.809C-140.96,79.277 -140.042,78.745 -139.096,78.197C-133.608,75.023 -128.116,71.858 -122.621,68.695C-113.413,63.393 -104.237,58.037 -95.066,52.671C-92.279,51.042 -89.49,49.416 -86.7,47.791C-70.383,38.282 -54.192,28.582 -38.067,18.75C-33.284,15.838 -28.491,12.944 -23.691,10.059C-22.92,9.593 -22.15,9.128 -21.355,8.649C-19.203,7.357 -17.044,6.079 -14.879,4.809C-14.084,4.338 -13.289,3.867 -12.47,3.382C-11.678,2.925 -10.886,2.467 -10.07,1.996C-9.359,1.582 -8.649,1.169 -7.916,0.742C-5.218,-0.494 -2.897,-0.638 0,0ZM-29.879,142.809C-51.383,169.217 -47.847,212.464 -45.109,244.468C-42.744,267.558 -37.897,290.412 -31.879,312.809C-27.634,309.712 -23.503,306.698 -19.879,302.871C-17.39,300.305 -14.873,297.912 -12.129,295.621C-5.682,290.064 -0.144,283.518 5.561,277.219C7.054,275.576 8.554,273.94 10.059,272.309C10.599,271.722 11.139,271.136 11.696,270.532C16.1,265.823 20.656,261.28 25.25,256.758C25.891,256.125 26.532,255.492 27.192,254.84C30.447,251.627 33.71,248.424 36.992,245.238C43.449,238.913 49.07,233.002 53.121,224.809C53.489,224.145 53.857,223.481 54.237,222.797C57.314,217.108 60.112,211.201 58.254,204.715C56.648,200.496 54.454,196.661 52.121,192.809C51.77,192.197 51.419,191.586 51.057,190.957C37.643,167.669 15.958,147.421 -9.879,138.809C-17.076,138.158 -24.181,137.839 -29.879,142.809Z" style="fill:white;fill-rule:nonzero;"/>
    </g>
    <g transform="matrix(1,0,0,1,3058,915)">
        <path d="M0,0C6.207,-0.075 12.414,-0.129 18.622,-0.165C20.729,-0.18 22.837,-0.2 24.944,-0.226C27.99,-0.263 31.036,-0.28 34.082,-0.293C35.01,-0.308 35.937,-0.324 36.893,-0.34C45.609,-0.342 55.178,0.796 61.684,7.145C64.81,11.552 65.39,16.356 64.613,21.621C61.836,32.167 56.065,37.32 47,43C46.01,43.495 46.01,43.495 45,44C46.087,44.528 46.087,44.528 47.195,45.066C54.68,48.888 60.776,52.962 64,61C65.134,70.729 63.478,78.535 58.25,86.75C49.087,95.913 37.828,101.742 24.778,102.085C15.365,102.057 5.969,101.832 -3.438,101.5C-4.863,101.452 -6.288,101.403 -7.713,101.355C-11.142,101.24 -14.571,101.121 -18,101L-18,98C-16.014,97.609 -14.029,97.219 -12.043,96.828C-9.348,95.736 -8.563,94.435 -7,92C-6.222,89.648 -6.222,89.648 -5.782,87.068C-5.591,86.089 -5.4,85.11 -5.203,84.101C-4.911,82.516 -4.911,82.516 -4.613,80.898C-4.401,79.792 -4.189,78.686 -3.971,77.547C-3.302,74.033 -2.65,70.517 -2,67C-1.793,65.892 -1.585,64.784 -1.372,63.642C-0.143,57.076 1.053,50.505 2.222,43.929C2.62,41.7 3.023,39.473 3.429,37.246C4.031,33.95 4.621,30.651 5.207,27.352C5.388,26.371 5.569,25.391 5.756,24.381C6.894,17.863 7.208,11.611 7,5C4.36,4.34 1.72,3.68 -1,3C-0.67,2.01 -0.34,1.02 0,0ZM27.055,7.09C24.537,11.65 23.915,16.931 23,22C22.718,23.484 22.435,24.969 22.152,26.453C21.87,27.968 21.59,29.484 21.312,31C21.181,31.718 21.049,32.435 20.914,33.175C20.276,36.824 19.848,40.294 20,44C26.616,44.551 31.536,43.937 37,40C43.591,34.283 47.17,27.105 48.344,18.473C48.526,13.91 48.187,10.495 45,7C39.232,3.783 32.026,1.257 27.055,7.09ZM18,50C16.971,55.423 15.956,60.849 14.954,66.278C14.612,68.123 14.266,69.966 13.915,71.809C13.411,74.466 12.921,77.125 12.434,79.785C12.275,80.602 12.117,81.419 11.954,82.261C11.075,87.151 10.837,91.14 12,96C17.128,98.564 24.524,97.721 29.871,96.164C36.748,93.045 40.862,88.663 43.992,81.836C46.943,73.882 48.138,65.956 45.016,57.91C43.084,54.277 40.319,52.716 36.812,50.812C30.394,48.958 24.545,48.839 18,50Z" style="fill:white;fill-rule:nonzero;"/>
    </g>
    <g transform="matrix(1,0,0,1,1864,915)">
        <path d="M0,0L26,0C31.678,10.399 37.355,20.798 42.988,31.221C47.461,39.497 51.946,47.767 56.5,56C57.077,57.048 57.077,57.048 57.667,58.118C59.573,61.55 61.55,64.918 63.639,68.242C64.083,68.95 64.527,69.657 64.984,70.386C65.319,70.919 65.655,71.451 66,72C67.359,64.858 68.699,57.712 70.015,50.562C70.627,47.241 71.245,43.922 71.878,40.605C72.605,36.782 73.308,32.956 74.008,29.129C74.351,27.361 74.351,27.361 74.702,25.558C75.925,18.716 76.208,13.642 74,7C71.942,5.119 71.942,5.119 69.375,4.438C68.558,4.147 67.74,3.857 66.898,3.559C66.272,3.374 65.645,3.19 65,3C65.33,2.01 65.66,1.02 66,0L98,0L98,3C97.397,3.231 96.793,3.461 96.172,3.699C91.232,5.715 87.805,7.252 85,12C82.81,17.35 81.348,22.41 80.39,28.097C80.255,28.862 80.119,29.627 79.98,30.416C79.539,32.917 79.109,35.419 78.68,37.922C78.373,39.672 78.066,41.422 77.758,43.172C76.953,47.76 76.157,52.348 75.362,56.938C74.395,62.521 73.418,68.103 72.441,73.685C71.681,78.025 70.923,82.366 70.171,86.707C69.898,88.278 69.624,89.85 69.351,91.421C69.228,92.133 69.106,92.844 68.98,93.578C68.426,96.751 67.847,99.89 67,103C65.188,103.688 65.188,103.688 63,104C60.326,101.844 58.911,99.272 57.32,96.266C56.81,95.311 56.3,94.356 55.775,93.372C55.23,92.342 54.686,91.311 54.125,90.25C49.627,81.832 45.044,73.476 40.312,65.188C35.852,57.359 31.566,49.462 27.406,41.47C22.5,32.064 22.5,32.064 17,23L16,23C14.536,30.961 13.083,38.923 11.646,46.889C10.978,50.588 10.306,54.286 9.624,57.983C8.966,61.554 8.319,65.126 7.679,68.701C7.434,70.06 7.185,71.419 6.931,72.778C6.576,74.688 6.236,76.601 5.896,78.514C5.699,79.6 5.501,80.686 5.297,81.804C4.819,86.94 4.984,90.73 8.25,94.812C10.825,96.86 12.882,98.02 16,99L16,101L-17,101L-17,98C-16.397,97.841 -15.793,97.683 -15.172,97.52C-9.993,96.008 -6.77,94.901 -4,90C-0.988,82.081 0.492,73.948 1.988,65.641C2.258,64.163 2.527,62.686 2.797,61.209C3.357,58.13 3.912,55.05 4.463,51.97C5.17,48.028 5.895,44.089 6.626,40.151C7.187,37.109 7.735,34.065 8.28,31.02C8.543,29.566 8.809,28.114 9.081,26.662C9.458,24.635 9.818,22.606 10.173,20.575C10.382,19.423 10.59,18.271 10.805,17.084C11.018,13.714 10.587,11.953 9,9C5.917,6.084 3.005,4.373 -1,3C-0.67,2.01 -0.34,1.02 0,0Z" style="fill:white;fill-rule:nonzero;"/>
    </g>
    <g transform="matrix(1,0,0,1,1682,900)">
        <path d="M0,0C-0.55,8.565 -1.723,16.881 -3.285,25.316C-3.506,26.535 -3.726,27.754 -3.953,29.01C-4.651,32.862 -5.356,36.712 -6.062,40.562C-6.772,44.445 -7.478,48.328 -8.182,52.211C-8.619,54.618 -9.058,57.024 -9.501,59.43C-9.698,60.512 -9.895,61.594 -10.098,62.709C-10.273,63.661 -10.447,64.613 -10.627,65.594C-11.077,68.088 -11.077,68.088 -11,71C-10.671,70.515 -10.343,70.031 -10.004,69.531C-4.697,62.053 1.887,54.471 11,52C22.119,50.678 22.119,50.678 26.625,54.188C32.033,60.591 31.741,67.874 31.234,75.896C29.821,88.611 22.149,100.326 12.418,108.367C4.27,113.869 -4.409,118.132 -14.312,118.25C-15.608,118.276 -16.904,118.302 -18.238,118.328C-23.274,117.889 -26.497,116.226 -30.375,113.062C-35.334,103.716 -30.867,90.411 -28.938,80.484C-28.622,78.817 -28.309,77.149 -27.996,75.482C-27.176,71.123 -26.345,66.767 -25.51,62.412C-24.172,55.429 -22.845,48.445 -21.531,41.458C-21.072,39.032 -20.603,36.609 -20.135,34.186C-19.851,32.689 -19.568,31.192 -19.285,29.694C-19.036,28.398 -18.788,27.102 -18.531,25.767C-17.965,21.75 -17.908,18.048 -18,14C-21.694,12.769 -24.206,13.356 -28,14C-26.696,10.087 -25.383,9.87 -21.758,8.047C-20.692,7.511 -19.626,6.974 -18.527,6.422C-17.405,5.87 -16.282,5.318 -15.125,4.75C-14.01,4.183 -12.895,3.616 -11.746,3.031C-10.677,2.5 -9.609,1.969 -8.508,1.422C-7.524,0.933 -6.541,0.444 -5.528,-0.06C-3,-1 -3,-1 0,0ZM-3.891,68.887C-11.909,78.596 -17.825,92.041 -17.344,104.797C-16.805,108.249 -15.719,109.839 -13,112C-9.139,113.144 -6.846,113.264 -3,112.062C7.707,104.701 11.941,93.337 14.496,81.016C15.375,75.757 15.566,71.729 13.875,66.562C12.201,63.812 12.201,63.812 9.312,62.875C3.799,63.083 0.016,64.988 -3.891,68.887Z" style="fill:white;fill-rule:nonzero;"/>
    </g>
    <g transform="matrix(1,0,0,1,3241,915)">
        <path d="M0,0L64,0C65.031,3.093 64.987,4.227 64.477,7.344C64.343,8.178 64.208,9.012 64.07,9.871C63.923,10.739 63.776,11.606 63.625,12.5C63.486,13.368 63.347,14.235 63.203,15.129C62.645,18.538 62.095,21.716 61,25C59.515,24.505 59.515,24.505 58,24C57.227,21.891 57.227,21.891 56.625,19.25C55.004,13.362 52.574,10.548 47.316,7.387C43.394,5.747 40.486,5.666 36.25,5.75C34.278,5.773 34.278,5.773 32.266,5.797C29.116,5.779 29.116,5.779 27,7C26.27,9.589 25.667,12.12 25.125,14.75C24.956,15.537 24.788,16.324 24.614,17.134C22.586,26.725 20.783,36.362 19,46C22.709,45.919 26.417,45.806 30.125,45.688C31.172,45.665 32.218,45.642 33.297,45.619C41.09,45.379 41.09,45.379 48,42C49.741,39.798 49.741,39.798 50.875,37.312C51.285,36.504 51.695,35.696 52.117,34.863C52.409,34.248 52.7,33.634 53,33L55,33C54.536,44.198 52.216,55.043 50,66L47,66C46.986,65.397 46.972,64.793 46.957,64.172C46.885,62.973 46.885,62.973 46.812,61.75C46.778,60.961 46.743,60.172 46.707,59.359C45.613,55.709 44.369,54.817 41,53C37.049,52.52 33.16,52.624 29.188,52.75C27.576,52.777 27.576,52.777 25.932,52.805C23.287,52.852 20.644,52.917 18,53C17.135,57.676 16.281,62.353 15.437,67.032C15.148,68.62 14.857,70.208 14.563,71.795C12.306,83.808 12.306,83.808 12,96C24.261,96.596 34.231,95.734 44.148,87.715C48.287,83.882 51.874,79.689 55,75L58,75C56.595,83.894 54.339,92.23 52,101L-18,101C-17.67,100.01 -17.34,99.02 -17,98C-15.907,97.938 -14.814,97.876 -13.688,97.812C-9.934,97.404 -9.934,97.404 -8.352,94.816C-6.935,91.865 -6.258,89.346 -5.676,86.129C-5.456,84.937 -5.235,83.744 -5.008,82.516C-4.776,81.198 -4.544,79.88 -4.312,78.562C-4.063,77.181 -3.813,75.799 -3.562,74.418C-3.007,71.348 -2.461,68.276 -1.919,65.204C-1.268,61.508 -0.609,57.814 0.056,54.121C0.987,48.945 1.91,43.767 2.827,38.589C3.191,36.539 3.556,34.489 3.923,32.44C4.443,29.534 4.953,26.627 5.461,23.719C5.617,22.855 5.773,21.992 5.934,21.102C6.815,15.988 7.147,11.19 7,6C4.36,5.01 1.72,4.02 -1,3C-0.67,2.01 -0.34,1.02 0,0Z" style="fill:white;fill-rule:nonzero;"/>
    </g>
    <g transform="matrix(1,0,0,1,1224,915)">
        <path d="M0,0L38,0L38,3C37.385,3.124 36.77,3.248 36.137,3.375C34.924,3.684 34.924,3.684 33.688,4C32.487,4.278 32.487,4.278 31.262,4.562C27.264,7.103 26.442,12.126 25.398,16.554C24.816,19.439 24.286,22.329 23.773,25.227C23.58,26.292 23.387,27.357 23.188,28.455C22.783,30.701 22.381,32.949 21.983,35.197C21.38,38.596 20.761,41.991 20.141,45.387C15.097,67.729 15.097,67.729 19.75,89.312C23.461,93.745 27.217,95.049 32.812,95.812C41.368,96.415 48.27,94.336 55,89C63.531,81.454 65.474,70.096 67.359,59.34C67.553,58.269 67.748,57.199 67.948,56.096C68.352,53.85 68.752,51.604 69.147,49.357C69.749,45.941 70.372,42.528 70.996,39.115C71.389,36.919 71.781,34.724 72.172,32.527C72.356,31.52 72.541,30.512 72.73,29.474C74.673,18.684 74.673,18.684 72.938,8.062C70.252,5.204 67.681,4.32 64,3L64,0L96,0L96,3C94.948,3.371 93.896,3.743 92.812,4.125C88.147,6.161 85.199,9.2 83.205,13.857C81.013,20.322 79.816,26.835 78.695,33.559C78.273,35.99 77.849,38.422 77.426,40.854C76.772,44.648 76.124,48.444 75.485,52.241C74.861,55.933 74.217,59.621 73.57,63.309C73.387,64.432 73.203,65.555 73.014,66.712C71.018,77.96 66.652,87.343 58,95C46.025,103.046 34.052,104.197 20,103C13.281,101.592 7.489,98.23 3,93C-4.288,81.491 -2.218,69.548 0.188,56.738C0.52,54.892 0.52,54.892 0.86,53.009C1.445,49.767 2.038,46.527 2.636,43.288C3.478,38.721 4.314,34.154 5.14,29.584C5.578,27.16 6.023,24.736 6.475,22.315C7.539,16.441 8.255,10.97 8,5C5.36,4.34 2.72,3.68 0,3L0,0Z" style="fill:white;fill-rule:nonzero;"/>
    </g>
    <g transform="matrix(1,0,0,1,2512.8125,913.6875)">
        <path d="M0,0C1.184,0.003 1.184,0.003 2.393,0.006C9.155,0.122 15.106,1.272 21.188,4.312C21.473,12.448 20.371,20.289 19.188,28.312L16.188,28.312C15.873,27.516 15.558,26.719 15.234,25.898C10.744,14.637 10.744,14.637 2.188,6.312C-2.287,4.821 -6.132,4.57 -10.5,6.5C-14.063,9.292 -16.376,12.004 -17.812,16.312C-18.304,21.442 -18.509,25.864 -16.25,30.562C-11.617,35.789 -6.821,40.36 -1.375,44.75C7.228,51.722 15.056,58.159 17.188,69.5C17.757,78.191 14.596,86.23 9.062,92.812C1.072,100.895 -9.051,104.498 -20.308,104.641C-21.052,104.636 -21.796,104.631 -22.562,104.625C-23.736,104.62 -23.736,104.62 -24.932,104.615C-33.635,104.453 -41.406,103.059 -48.812,98.312C-48.166,89.422 -45.942,80.941 -43.812,72.312L-40.812,72.312C-40.461,73.375 -40.109,74.437 -39.746,75.531C-35.416,88.273 -35.416,88.273 -25.938,97.484C-20.573,99.575 -14.554,99.073 -9.375,96.812C-4.331,91.891 -2.58,87.367 -2.312,80.312C-2.664,71.561 -6.047,66.461 -12.266,60.512C-15.393,57.811 -18.655,55.32 -21.938,52.812C-27.946,48.221 -33.351,43.697 -35.812,36.312C-36.637,27.26 -36.288,19.806 -30.812,12.312C-22.87,3.406 -11.647,-0.08 0,0Z" style="fill:white;fill-rule:nonzero;"/>
    </g>
    <g transform="matrix(1,0,0,1,3223,919)">
        <path d="M0,0C-0.494,8.786 -1.368,17.35 -3,26C-4.485,25.505 -4.485,25.505 -6,25C-7.141,22.559 -7.141,22.559 -8.25,19.438C-11.254,11.919 -14.908,6.276 -22.25,2.5C-29.299,-0.181 -36.203,0.08 -43.25,2.625C-52.445,6.815 -57.985,13.451 -61.728,22.823C-67.879,39.427 -70.76,60.412 -64.266,77.402C-60.643,84.838 -57.032,90.587 -49.125,93.75C-39.525,94.879 -33.248,92.575 -25.5,86.875C-19.566,82.057 -14.241,76.362 -10,70C-8.515,70.495 -8.515,70.495 -7,71C-7.616,74.085 -8.244,77.168 -8.875,80.25C-9.049,81.123 -9.223,81.995 -9.402,82.895C-9.576,83.739 -9.75,84.583 -9.93,85.453C-10.087,86.228 -10.244,87.003 -10.406,87.802C-11.031,90.113 -11.729,91.968 -13,94C-16.012,95.23 -16.012,95.23 -19.688,96.188C-20.888,96.511 -22.088,96.835 -23.324,97.168C-38.366,100.573 -56.589,101.577 -70.352,93.645C-72.398,92.215 -74.191,90.718 -76,89C-76.553,88.475 -77.106,87.951 -77.676,87.41C-86.974,77.604 -87.45,65.168 -87.281,52.426C-86.722,36.331 -79.201,22.349 -68.059,11.027C-51.793,-3.924 -20.055,-13.37 0,0Z" style="fill:white;fill-rule:nonzero;"/>
    </g>
    <g transform="matrix(1,0,0,1,1335,952)">
        <path d="M0,0C2.865,1.96 3.789,3.319 4.812,6.625C5.064,11.155 4.577,15.509 4,20C4.528,19.039 4.528,19.039 5.066,18.059C9.375,10.51 14.339,2.778 23,0C28.759,-0.698 33.332,-1.177 38.188,2.25C42.73,9.141 41.162,17.33 39.688,25.078C39.554,25.812 39.421,26.546 39.284,27.302C38.863,29.619 38.432,31.935 38,34.25C37.569,36.58 37.141,38.91 36.716,41.241C36.453,42.684 36.186,44.126 35.915,45.568C35.321,48.802 35,51.694 35,55C38.889,54.46 40.922,53.36 44,51L47,51C44.372,57.212 39.91,61.871 34,65C30.194,66.026 26.911,66.252 23.062,65.188C21,64 21,64 20,62C19.252,51.013 21.088,40.849 23.311,30.148C24.686,23.127 25.263,17.072 24,10C18.581,10.666 15.796,11.641 12.312,15.938C3.272,28.853 -0.735,44.714 -3.227,60.086C-4,63 -4,63 -7,65C-9.918,65.195 -9.918,65.195 -13.188,65.125C-14.274,65.107 -15.361,65.089 -16.48,65.07C-17.312,65.047 -18.143,65.024 -19,65C-20.728,61.545 -19.127,57.702 -18.383,54.039C-18.118,52.688 -18.118,52.688 -17.848,51.309C-17.28,48.413 -16.703,45.519 -16.125,42.625C-12.672,25.935 -12.672,25.935 -11,9C-15.131,10.922 -18.533,13.043 -22,16C-22.66,15.67 -23.32,15.34 -24,15C-21.394,9.086 -16.309,3.776 -10.438,1C-6.666,-0.097 -3.901,-0.515 0,0Z" style="fill:white;fill-rule:nonzero;"/>
    </g>
    <g transform="matrix(1,0,0,1,2597.5625,952.25)">
        <path d="M0,0C0.785,0.067 1.57,0.134 2.379,0.203C4.438,0.75 4.438,0.75 6.438,3.75C6.58,6.352 6.626,8.841 6.562,11.438C6.553,12.139 6.544,12.841 6.535,13.564C6.512,15.293 6.476,17.022 6.438,18.75C6.838,18.121 7.239,17.492 7.652,16.844C12.123,10.113 17.472,2.405 25.438,-0.25C35.454,-1.377 35.454,-1.377 39.301,0.809C42.729,4.54 43.259,8.899 43.438,13.75C43.215,16.954 42.724,20.085 42.188,23.25C42.05,24.116 41.912,24.981 41.77,25.873C40.656,32.765 39.368,39.622 37.988,46.465C37.51,49.315 37.323,51.871 37.438,54.75C41.127,54.303 41.127,54.303 44,52.125C44.474,51.671 44.949,51.218 45.438,50.75C47.527,51.164 47.527,51.164 49.438,51.75C39.409,64.09 39.409,64.09 32.438,65.75C29.542,65.949 27.035,66.103 24.438,64.75C21.484,59.596 21.141,56.275 22,50.312C22.096,49.603 22.191,48.894 22.29,48.163C22.931,43.594 23.731,39.056 24.543,34.516C24.731,33.448 24.919,32.379 25.113,31.279C25.49,29.166 25.883,27.056 26.291,24.949C27.257,19.624 27.889,15.817 25.438,10.75C20.917,10.84 18.88,11.363 15.438,14.375C5.193,27.843 1.724,45.514 -1.887,61.66C-2.11,62.35 -2.333,63.039 -2.562,63.75C-5.327,65.132 -7.609,64.845 -10.688,64.812C-11.783,64.803 -12.879,64.794 -14.008,64.785C-15.272,64.768 -15.272,64.768 -16.562,64.75C-17.59,61.669 -17.568,60.778 -16.958,57.729C-16.801,56.923 -16.643,56.118 -16.482,55.289C-16.305,54.42 -16.128,53.551 -15.945,52.656C-15.769,51.754 -15.592,50.852 -15.41,49.923C-14.843,47.031 -14.266,44.14 -13.688,41.25C-10.297,25.117 -10.297,25.117 -8.562,8.75C-14.862,11.753 -14.862,11.753 -20.562,15.75C-20.562,11.484 -19.946,10.37 -17.195,7.273C-12.314,2.719 -6.791,-0.671 0,0Z" style="fill:white;fill-rule:nonzero;"/>
    </g>
    <g transform="matrix(1,0,0,1,2018,950)">
        <path d="M0,0C-0.585,6.917 -1.563,13.676 -2.848,20.496C-3.024,21.451 -3.2,22.407 -3.381,23.391C-3.938,26.407 -4.5,29.422 -5.062,32.438C-5.628,35.478 -6.193,38.518 -6.754,41.559C-7.102,43.442 -7.453,45.326 -7.806,47.208C-7.963,48.057 -8.12,48.905 -8.281,49.779C-8.421,50.524 -8.56,51.269 -8.703,52.036C-9.075,54.163 -9.075,54.163 -9,57C-6.04,56.589 -4.277,56.212 -1.875,54.375C-1.256,53.921 -0.637,53.468 0,53C1.485,53.495 1.485,53.495 3,54C-6.988,66.29 -6.988,66.29 -14,68C-17.376,67.825 -19.952,67.629 -22.875,65.875C-26.271,60.216 -24.813,53.219 -24,47C-24.352,47.568 -24.704,48.137 -25.066,48.723C-30.753,57.616 -36.726,64.524 -47,68C-51.887,68.885 -56.321,68.96 -60.562,66.125C-64.419,61.18 -64.329,56.607 -63.773,50.516C-61.133,34.26 -50.513,18.465 -37.5,8.688C-29.224,2.972 -23.038,1.153 -13,2C-9.25,3 -9.25,3 -7,4C-6.402,3.34 -5.804,2.68 -5.188,2C-3,0 -3,0 0,0ZM-37.672,15.629C-45.262,25 -48.396,36.306 -48.367,48.172C-47.984,51.124 -47.586,52.199 -45.5,54.25C-43.086,56.374 -43.086,56.374 -40,55.5C-33.146,53.431 -29.082,48.142 -25.75,42.055C-21.269,33.412 -17.842,25.939 -19,16C-20.774,12.781 -21.955,11.493 -25.25,9.938C-30.244,10.051 -34.116,12.165 -37.672,15.629Z" style="fill:white;fill-rule:nonzero;"/>
    </g>
    <g transform="matrix(1,0,0,1,1635,950)">
        <path d="M0,0L3,0C2.449,11.474 0.13,22.577 -2.064,33.82C-2.55,36.322 -3.027,38.825 -3.504,41.328C-3.654,42.08 -3.804,42.833 -3.958,43.608C-4.884,48.487 -5.134,53.033 -5,58C-0.676,55.974 -0.676,55.974 3,53L6,53C4.013,59.056 -0.027,62.241 -5,66C-9.599,68.3 -13.027,68.313 -18,67C-20.722,64.479 -20.994,63.077 -21.293,59.328C-21.273,57.968 -21.238,56.609 -21.188,55.25C-21.167,54.204 -21.167,54.204 -21.146,53.137C-21.111,51.424 -21.057,49.712 -21,48C-21.34,48.485 -21.681,48.969 -22.031,49.469C-27.465,56.984 -33.689,65.368 -43,68C-48.308,68.718 -52.46,68.924 -57.125,66.125C-60.825,61.931 -60.335,58.059 -60.27,52.637C-58.983,35.272 -47.933,21.129 -35.562,9.688C-28.113,3.704 -21.662,1.428 -12.078,1.629C-8.836,2.02 -6.054,2.862 -3,4C-2.567,3.34 -2.134,2.68 -1.688,2C-1.131,1.34 -0.574,0.68 0,0ZM-32.805,14.699C-40.994,23.644 -44.868,34.327 -45.375,46.5C-44.974,50.242 -44.484,52.173 -42,55C-39.805,56.358 -39.805,56.358 -37,56C-28.423,52.797 -23.437,44.735 -19.422,36.934C-16.29,29.887 -13.366,22.638 -16.188,15.062C-17.984,12.026 -18.666,10.938 -22,10C-26.53,10 -29.503,11.59 -32.805,14.699Z" style="fill:white;fill-rule:nonzero;"/>
    </g>
    <g transform="matrix(1,0,0,1,2195,950)">
        <path d="M0,0L3,0C2.415,6.917 1.437,13.676 0.152,20.496C-0.024,21.451 -0.2,22.407 -0.381,23.391C-0.938,26.407 -1.5,29.422 -2.062,32.438C-2.628,35.478 -3.193,38.518 -3.754,41.559C-4.102,43.442 -4.453,45.326 -4.806,47.208C-4.963,48.057 -5.12,48.905 -5.281,49.779C-5.421,50.524 -5.56,51.269 -5.703,52.036C-6.075,54.163 -6.075,54.163 -6,57C-3.04,56.589 -1.277,56.212 1.125,54.375C1.744,53.921 2.362,53.468 3,53C4.485,53.495 4.485,53.495 6,54C1.606,61.088 -3.605,65.755 -11.75,68.062C-15.775,67.985 -18.158,66.842 -21,64C-21.073,61.303 -21.092,58.633 -21.062,55.938C-21.058,55.179 -21.053,54.42 -21.049,53.639C-21.037,51.759 -21.019,49.88 -21,48C-21.485,48.641 -21.969,49.281 -22.469,49.941C-28.832,58.152 -35.54,66.799 -46.449,68.348C-50.602,68.59 -54.045,68.509 -57.562,66.125C-61.601,60.947 -61.382,56.347 -60.656,49.988C-57.515,33.185 -47.033,17.829 -33.461,7.66C-25.756,2.462 -19.314,1.073 -10,2C-6.375,3 -6.375,3 -4,4L-2,4C-1.34,2.68 -0.68,1.36 0,0ZM-34.68,15.625C-42.244,25.031 -45.396,36.287 -45.367,48.172C-44.984,51.124 -44.586,52.199 -42.5,54.25C-40.086,56.374 -40.086,56.374 -37,55.5C-30.146,53.431 -26.082,48.142 -22.75,42.055C-17.526,32.032 -17.526,32.032 -15.812,21C-15.791,19.732 -15.791,19.732 -15.77,18.438C-16.018,15.808 -16.601,14.226 -18,12C-23.985,8.139 -29.942,11.041 -34.68,15.625Z" style="fill:white;fill-rule:nonzero;"/>
    </g>
    <g transform="matrix(1,0,0,1,2987.207031,954.675781)">
        <path d="M0,0C5.607,4.141 9.409,9.452 10.793,16.324C12.183,29.242 9.092,40.646 1.066,50.879C-2.586,54.807 -6.554,57.686 -11.207,60.324C-11.83,60.684 -12.452,61.044 -13.094,61.414C-20.954,65.114 -31.652,64.595 -39.707,61.824C-45.475,59.123 -49.606,54.669 -52.344,48.949C-55.886,38.178 -54.022,27.211 -49.457,17.074C-44.395,7.901 -37.051,2.123 -27.418,-1.816C-19,-4.069 -7.757,-4.276 0,0ZM-28.809,7.395C-35.026,16.92 -36.453,26.408 -36.582,37.574C-36.596,38.414 -36.61,39.254 -36.625,40.119C-36.578,46.189 -35.92,52.252 -31.727,57C-29.235,59.171 -26.843,59.385 -23.621,59.637C-18.867,59.021 -16.113,55.924 -13.207,52.324C-6.422,42.209 -4.536,25.342 -6.711,13.605C-8.062,8.355 -9.567,4.488 -14.207,1.324C-20.728,0.257 -24.788,2.197 -28.809,7.395Z" style="fill:white;fill-rule:nonzero;"/>
    </g>
    <g transform="matrix(1,0,0,1,2858,950)">
        <path d="M0,0C-0.555,7.328 -1.494,14.478 -2.848,21.699C-3.024,22.66 -3.2,23.621 -3.381,24.612C-3.937,27.638 -4.5,30.663 -5.062,33.688C-5.444,35.757 -5.825,37.827 -6.205,39.896C-7.132,44.932 -8.064,49.966 -9,55L0,55C0.125,62.75 0.125,62.75 -1,65L-11,65C-11.193,66.435 -11.387,67.869 -11.586,69.348C-11.849,71.253 -12.112,73.158 -12.375,75.062C-12.564,76.477 -12.564,76.477 -12.758,77.92C-14.241,88.561 -14.241,88.561 -16,93C-17.953,94.34 -17.953,94.34 -20.25,94.938C-21.048,95.149 -21.846,95.36 -22.668,95.578C-25.49,96.089 -28.141,96.22 -31,96C-30.418,88.853 -29.334,81.905 -27.938,74.875C-27.298,71.616 -26.659,68.358 -26,65C-37.88,64.67 -49.76,64.34 -62,64C-60.304,60.609 -59.417,59.206 -56.812,56.75C-54.388,54.399 -52.115,52.018 -49.938,49.438C-46.486,45.423 -42.761,41.721 -39,38C-33.615,32.688 -33.615,32.688 -28.562,27.062C-24.508,22.261 -19.964,17.932 -15.495,13.521C-11.532,9.592 -7.76,5.608 -4.297,1.223C-3,0 -3,0 0,0ZM-20,24C-20.354,24.427 -20.709,24.853 -21.074,25.293C-25.012,29.917 -29.185,34.233 -33.5,38.5C-41.671,46.042 -41.671,46.042 -48,55L-24,55C-23.136,50.585 -22.283,46.168 -21.438,41.75C-21.191,40.496 -20.944,39.241 -20.689,37.949C-20.461,36.744 -20.232,35.539 -19.996,34.297C-19.781,33.187 -19.567,32.076 -19.345,30.933C-19.025,28.208 -19.105,26.557 -20,24Z" style="fill:white;fill-rule:nonzero;"/>
    </g>
    <g transform="matrix(1,0,0,1,2303.75,954)">
        <path d="M0,0C4.721,3.724 8.189,9.062 9.25,15C10.188,29.163 7.749,41.701 -1.5,52.688C-7.653,59.321 -14.417,63.48 -23.555,64.371C-36.811,64.768 -36.811,64.768 -42.273,60.484C-48.477,54.248 -49.844,47.832 -50.125,39.375C-49.936,28.272 -46.76,18.635 -39.75,10C-39.237,9.363 -38.724,8.726 -38.195,8.07C-29.363,-1.777 -12.222,-6.819 0,0ZM-25.75,6C-33.382,16.369 -34.584,31.585 -33.262,43.965C-32.39,49.133 -31.043,53.153 -28,57.5C-24.625,59.75 -22.719,59.753 -18.75,59C-11.643,53.868 -9.209,44.218 -7.75,36C-7.493,32.586 -7.474,29.173 -7.438,25.75C-7.394,24.395 -7.394,24.395 -7.35,23.012C-7.29,16.588 -8.399,11.537 -11.75,6C-14.126,3.411 -14.126,3.411 -16.75,2C-20.728,2 -22.954,3.317 -25.75,6Z" style="fill:white;fill-rule:nonzero;"/>
    </g>
    <g transform="matrix(1,0,0,1,1534,900)">
        <path d="M0,0C0.19,5.671 -0.526,10.868 -1.561,16.436C-1.726,17.356 -1.892,18.275 -2.063,19.223C-2.422,21.209 -2.784,23.195 -3.148,25.181C-3.725,28.324 -4.295,31.468 -4.862,34.613C-5.863,40.152 -6.871,45.69 -7.881,51.228C-9.498,60.098 -11.11,68.968 -12.713,77.841C-13.274,80.938 -13.841,84.033 -14.408,87.129C-14.752,89.027 -15.096,90.925 -15.439,92.823C-15.678,94.112 -15.678,94.112 -15.921,95.427C-16.623,99.334 -17.202,103.011 -17,107C-13.188,106.485 -11.621,105.74 -9,103L-6,103C-6.858,108.478 -10.937,111.564 -15,115C-18.631,117.452 -21.961,118.22 -26.312,117.812C-30,117 -30,117 -32,115C-35.427,105.511 -31.157,92.469 -29.302,82.795C-28.828,80.327 -28.364,77.858 -27.902,75.388C-26.755,69.264 -25.593,63.143 -24.432,57.022C-23.445,51.822 -22.464,46.621 -21.492,41.419C-21.037,38.998 -20.573,36.579 -20.109,34.16C-19.829,32.666 -19.549,31.173 -19.269,29.678C-19.024,28.385 -18.778,27.092 -18.525,25.76C-17.965,21.748 -17.909,18.043 -18,14C-21.694,12.769 -24.206,13.356 -28,14C-26.696,10.087 -25.383,9.87 -21.758,8.047C-20.692,7.511 -19.626,6.974 -18.527,6.422C-17.405,5.87 -16.282,5.318 -15.125,4.75C-14.01,4.183 -12.895,3.616 -11.746,3.031C-10.677,2.5 -9.609,1.969 -8.508,1.422C-7.524,0.933 -6.541,0.444 -5.528,-0.06C-3,-1 -3,-1 0,0Z" style="fill:white;fill-rule:nonzero;"/>
    </g>
    <g transform="matrix(1,0,0,1,1755,900)">
        <path d="M0,0C-1.35,11.983 -3.284,23.796 -5.441,35.656C-5.773,37.497 -6.104,39.339 -6.435,41.18C-7.297,45.978 -8.164,50.775 -9.032,55.572C-10.427,63.274 -11.815,70.977 -13.2,78.681C-13.682,81.353 -14.166,84.025 -14.651,86.697C-14.948,88.343 -15.245,89.989 -15.541,91.635C-15.675,92.366 -15.808,93.098 -15.946,93.852C-16.79,98.555 -17.442,103.254 -18,108C-13.104,106.123 -13.104,106.123 -9,103L-6,103C-7.987,109.056 -12.027,112.241 -17,116C-21.599,118.3 -25.027,118.313 -30,117C-32.657,114.205 -33.418,112.263 -33.395,108.439C-33.171,100.729 -31.631,93.206 -30.191,85.649C-29.674,82.93 -29.169,80.21 -28.667,77.488C-27.42,70.738 -26.153,63.992 -24.885,57.246C-23.81,51.523 -22.743,45.799 -21.688,40.072C-21.191,37.397 -20.683,34.725 -20.174,32.052C-19.87,30.41 -19.566,28.768 -19.263,27.126C-19.048,26.02 -19.048,26.02 -18.827,24.892C-18.061,20.649 -18.023,17.204 -19,13C-23.455,13.495 -23.455,13.495 -28,14C-26.696,10.087 -25.383,9.87 -21.758,8.047C-20.692,7.511 -19.626,6.974 -18.527,6.422C-17.405,5.87 -16.282,5.318 -15.125,4.75C-14.01,4.183 -12.895,3.616 -11.746,3.031C-10.677,2.5 -9.609,1.969 -8.508,1.422C-7.524,0.933 -6.541,0.444 -5.528,-0.06C-3,-1 -3,-1 0,0Z" style="fill:white;fill-rule:nonzero;"/>
    </g>
    <g transform="matrix(1,0,0,1,2882,949)">
        <path d="M0,0L3,0L3,4C17.85,4.33 32.7,4.66 48,5C47.189,9.863 46.588,12.304 44.445,16.465C43.919,17.499 43.394,18.532 42.852,19.597C42.282,20.699 41.712,21.802 41.125,22.938C39.916,25.313 38.709,27.689 37.504,30.066C37.201,30.663 36.898,31.259 36.585,31.873C33.985,36.998 31.51,42.176 29.062,47.375C23.841,58.371 18.474,69.295 13.07,80.202C12.068,82.228 11.07,84.255 10.075,86.284C8.665,89.158 7.242,92.025 5.816,94.891C5.391,95.765 4.965,96.639 4.526,97.539C3.919,98.75 3.919,98.75 3.299,99.985C2.95,100.691 2.602,101.397 2.242,102.124C-0.394,106.105 -4.129,107.62 -8.5,109.188C-9.438,109.532 -10.377,109.876 -11.344,110.23C-14,111 -14,111 -18,111C-17.339,107.518 -15.945,104.968 -14.113,101.949C-13.512,100.953 -12.91,99.956 -12.291,98.929C-11.638,97.859 -10.985,96.79 -10.312,95.688C-9.638,94.574 -8.964,93.46 -8.27,92.313C-6.186,88.871 -4.093,85.436 -2,82C-0.794,80.014 0.412,78.029 1.617,76.043C4.49,71.314 7.371,66.589 10.253,61.865C12.639,57.952 15.021,54.036 17.404,50.12C23.922,39.405 30.455,28.699 37,18C33.034,18.095 29.069,18.201 25.104,18.317C23.103,18.374 21.101,18.421 19.1,18.469C7.616,18.232 7.616,18.232 -2.609,22.384C-4.378,24.439 -5.788,26.576 -7,29L-10,29C-9.421,24.864 -8.48,21.259 -6.934,17.383C-6.531,16.364 -6.128,15.346 -5.713,14.297C-5.292,13.25 -4.871,12.203 -4.438,11.125C-3.8,9.52 -3.8,9.52 -3.15,7.883C-2.106,5.253 -1.055,2.626 0,0Z" style="fill:white;fill-rule:nonzero;"/>
    </g>
    <g transform="matrix(1,0,0,1,2747.9375,951.6875)">
        <path d="M0,0C0.703,-0.029 1.406,-0.058 2.131,-0.088C5.764,-0.132 7.892,0.21 11.031,2.09C13.062,4.312 13.062,4.312 13.625,8.188C13.284,12.581 12.089,15.005 9.062,18.312C-0.228,25.627 -11.235,29.917 -22.938,31.312C-22.75,43.443 -22.75,43.443 -17.938,54.312C-14.146,57.156 -10.76,57.786 -6.023,57.613C-3.088,57.19 -0.515,56.229 2.203,55.066C4.133,54.284 6.034,53.775 8.062,53.312C7.697,55.957 7.314,57.083 5.312,58.91C-4.29,65.162 -12.375,67.403 -23.938,66.312C-29.099,65.136 -32.564,62.342 -35.938,58.312C-40.568,50.208 -41.069,42.115 -39.289,32.988C-35.881,20.683 -28.723,10.668 -17.727,3.965C-11.798,0.891 -6.683,0.091 0,0ZM-15.938,9.312C-19.354,14.85 -21.938,20.76 -21.938,27.312C-14.908,25.604 -9.788,22.757 -4.938,17.312C-3.764,13.792 -3.736,11.006 -3.938,7.312C-5.748,5.112 -5.748,5.112 -8.25,4.938C-11.958,5.455 -13.324,6.632 -15.938,9.312Z" style="fill:white;fill-rule:nonzero;"/>
    </g>
    <g transform="matrix(1,0,0,1,1796.9375,951.6875)">
        <path d="M0,0C0.703,-0.029 1.406,-0.058 2.131,-0.088C5.8,-0.133 7.867,0.19 11,2.156C13.692,4.971 14.139,6.42 14.062,10.312C10.637,18.654 4.255,22.526 -3.812,26C-17.334,31.312 -17.334,31.312 -22.938,31.312C-22.561,43.856 -22.561,43.856 -16.938,54.75C-12.771,58.005 -7.994,57.924 -2.938,57.312C-0.443,56.427 1.857,55.385 4.215,54.188C6.062,53.312 6.062,53.312 8.062,53.312C7.697,55.957 7.314,57.083 5.312,58.91C-4.194,65.1 -12.462,67.604 -23.938,66.312C-29.567,64.713 -34.025,61.464 -36.938,56.312C-41.722,44.988 -40.328,35.577 -35.938,24.312C-31.071,13.653 -22.742,5.783 -11.938,1.312C-8.046,0.021 -4.061,0.056 0,0ZM-15.938,10.312C-19.258,15.834 -21.517,20.859 -21.938,27.312C-14.739,25.201 -8.328,23.301 -4.5,16.375C-3.298,13.696 -2.932,12.428 -3.062,9.438C-3.846,7.147 -3.846,7.147 -5.938,5.312C-10.814,4.39 -13.209,6.54 -15.938,10.312Z" style="fill:white;fill-rule:nonzero;"/>
    </g>
    <g transform="matrix(1,0,0,1,1479.875,951.75)">
        <path d="M0,0C1.062,-0.031 1.062,-0.031 2.145,-0.062C6.687,-0.096 9.486,0.511 13.125,3.25C14.125,4.25 14.125,4.25 14.625,7.812C14.493,12.452 12.893,14.949 9.695,18.23C0.509,25.448 -10.446,29.371 -21.875,31.25C-22.155,40.084 -21.865,48.233 -15.875,55.25C-11.861,57.703 -7.466,57.833 -2.875,57.25C-0.757,56.585 1.239,55.811 3.266,54.906C5.125,54.25 5.125,54.25 9.125,54.25L9.125,56.25C0.212,63.973 -8.165,66.848 -19.852,66.535C-26.469,65.911 -30.516,63.336 -34.875,58.25C-39.909,50.878 -39.49,42.88 -38.875,34.25C-36.444,23.18 -29.646,13.326 -20.875,6.25C-13.956,2.107 -8.074,0.058 0,0ZM-14.875,9.25C-18.549,15.092 -20.493,20.372 -20.875,27.25C-13.357,25.096 -8.201,22.953 -3.875,16.25C-2.368,13.237 -2.697,10.567 -2.875,7.25C-4.686,5.049 -4.686,5.049 -7.188,4.875C-10.971,5.403 -12.224,6.466 -14.875,9.25Z" style="fill:white;fill-rule:nonzero;"/>
    </g>
    <g transform="matrix(1,0,0,1,2419.9375,956.3125)">
        <path d="M0,0C1.718,2.728 1.566,4.541 1.062,7.688C-1.539,11.314 -3.037,12.511 -7.438,13.375C-12.129,12.454 -13.314,10.585 -15.938,6.688C-16.267,5.924 -16.598,5.161 -16.938,4.375C-17.85,2.427 -17.85,2.427 -20.375,1.812C-23.182,1.421 -23.182,1.421 -25.938,3.688C-26.961,5.963 -26.961,5.963 -26.938,8.688C-25.621,11.821 -25.621,11.821 -23.938,14.688C-23.608,15.678 -23.277,16.668 -22.938,17.688C-21.619,18.382 -20.282,19.043 -18.938,19.688C-5.704,30.292 -5.704,30.292 -4.535,36.996C-4.129,43.498 -5.745,47.764 -9.938,52.688C-15.764,58.924 -21.855,61.757 -30.375,62.125C-35.854,61.957 -40.343,60.714 -44.938,57.688C-47.541,54.778 -47.954,53.514 -47.875,49.625C-46.77,46.164 -45.941,44.742 -42.938,42.688C-39.562,42 -39.562,42 -35.938,42.688C-32.812,45.355 -30.619,48.651 -28.375,52.062C-26.986,53.899 -26.986,53.899 -24.438,54.562C-21.684,54.949 -21.684,54.949 -18.938,52.688C-17.694,48.542 -17.817,46.089 -19.062,41.938C-21.692,37.154 -25.949,33.971 -30.165,30.632C-34.463,27.224 -38.153,24.042 -39.938,18.688C-40.336,13.405 -39.891,10.118 -36.938,5.688C-27.009,-4.972 -12.656,-8.573 0,0Z" style="fill:white;fill-rule:nonzero;"/>
    </g>
    <g transform="matrix(1,0,0,1,2108,953)">
        <path d="M0,0C2.491,3.737 2.207,5.745 2.125,10.188C2.107,11.46 2.089,12.732 2.07,14.043C2.047,15.019 2.024,15.995 2,17C2.303,16.348 2.606,15.695 2.918,15.023C8.423,3.538 8.423,3.538 13.938,-0.375C18.313,-1.701 21.696,-1.398 25.75,0.625C28.39,2.282 29.03,3.056 30.562,5.938C31.07,9.488 30.889,10.962 29,14C26.812,15.938 26.812,15.938 24,17C20,16.241 17.389,15.26 14,13C11.944,12.864 11.944,12.864 10,14C1.302,26.669 -2.426,43.39 -5.708,58.189C-6.08,59.807 -6.533,61.407 -7,63C-9.884,64.442 -12.417,64.094 -15.625,64.062C-16.814,64.053 -18.002,64.044 -19.227,64.035C-20.599,64.018 -20.599,64.018 -22,64C-21.348,58.35 -20.455,52.805 -19.371,47.223C-19.055,45.558 -18.739,43.893 -18.424,42.229C-17.931,39.643 -17.437,37.058 -16.936,34.475C-16.448,31.955 -15.972,29.433 -15.496,26.91C-15.346,26.151 -15.196,25.391 -15.042,24.608C-14.058,19.331 -13.873,14.369 -14,9C-18.508,10.258 -21.491,11.904 -25,15C-25.33,14.01 -25.66,13.02 -26,12C-20.937,3.263 -10.173,-3.859 0,0ZM0,20L1,22L0,20Z" style="fill:white;fill-rule:nonzero;"/>
    </g>
    <g transform="matrix(1,0,0,1,1410,952)">
        <path d="M0,0C3.185,1.76 3.833,2.499 5,6C5.069,7.895 5.085,9.792 5.062,11.688C5.053,12.681 5.044,13.675 5.035,14.699C5.024,15.458 5.012,16.218 5,17C5.375,16.264 5.75,15.528 6.137,14.77C12.808,2.048 12.808,2.048 17.879,0.383C23.647,-0.69 27.068,1.046 31.875,4.25C33.746,7.161 33.353,9.645 33,13C31.586,15.827 30.659,16.725 27.75,17.938C23.963,18.024 21.394,16.604 18,15C16.674,14.64 15.341,14.299 14,14C8.713,20.923 5.928,27.992 3.312,36.25C2.935,37.388 2.558,38.526 2.17,39.699C-0.058,46.551 -1.858,53.384 -3.3,60.444C-4,63 -4,63 -6,65C-9.039,65.195 -9.039,65.195 -12.625,65.125C-13.814,65.107 -15.002,65.089 -16.227,65.07C-17.142,65.047 -18.057,65.024 -19,65C-18.219,54.284 -15.979,43.821 -13.936,33.29C-13.45,30.775 -12.972,28.259 -12.496,25.742C-12.346,24.984 -12.196,24.225 -12.042,23.444C-11.121,18.548 -10.865,13.983 -11,9C-15.068,10.849 -18.009,12.664 -21,16C-21.99,15.67 -22.98,15.34 -24,15C-21.002,8.364 -15.579,3.621 -8.984,0.656C-5.836,-0.385 -3.267,-0.44 0,0ZM3,19L4,22L3,19Z" style="fill:white;fill-rule:nonzero;"/>
    </g>
    <g transform="matrix(1,0,0,1,2051.375,952.9375)">
        <path d="M0,0C2.972,3.772 2.826,8.552 2.453,13.207C2.228,14.833 1.934,16.45 1.625,18.062C1.989,17.266 2.352,16.469 2.727,15.648C8.226,4.058 8.226,4.058 13.625,0.062C17.827,-1.406 20.757,-1.249 24.938,0.25C27.629,2.065 29.145,3.186 30.625,6.062C31.16,9.731 31.143,11.353 28.938,14.375C26.289,16.307 24.905,16.984 21.625,17.062C19.592,16.131 17.591,15.128 15.625,14.062C13.966,13.691 12.3,13.351 10.625,13.062C3.078,26.95 -1.857,41.293 -5.083,56.757C-6.174,61.862 -6.174,61.862 -8.375,64.062C-11.414,64.258 -11.414,64.258 -15,64.188C-16.189,64.169 -17.377,64.151 -18.602,64.133C-19.517,64.11 -20.432,64.086 -21.375,64.062C-23.078,60.656 -21.512,56.957 -20.758,53.355C-20.395,51.553 -20.031,49.75 -19.668,47.947C-19.089,45.115 -18.507,42.282 -17.923,39.45C-15.777,28.986 -13.751,18.768 -13.375,8.062C-17.506,9.984 -20.908,12.105 -24.375,15.062C-25.035,14.732 -25.695,14.402 -26.375,14.062C-23.377,7.426 -17.954,2.684 -11.359,-0.281C-7.305,-1.622 -3.946,-1.558 0,0Z" style="fill:white;fill-rule:nonzero;"/>
    </g>
    <g transform="matrix(1,0,0,1,2342,952)">
        <path d="M0,0C2.207,1.566 2.207,1.566 4,4C4.391,7.453 4.391,7.453 4.25,11.25C4.214,12.513 4.178,13.777 4.141,15.078C4.071,16.524 4.071,16.524 4,18C4.375,17.264 4.75,16.528 5.137,15.77C8.691,8.993 11.583,4.278 18,0C22.443,-0.25 26.132,0.512 30,2.688C32.494,5.571 33,7.197 33,11C31.66,14.467 30.527,15.693 27.312,17.562C23.166,18.11 21.39,17.009 17.93,14.848C16.036,13.849 16.036,13.849 13.934,14.074C8.338,16.753 6.2,26.334 4.199,31.906C0.863,41.537 -1.968,51.191 -4.176,61.141C-4.448,62.084 -4.72,63.028 -5,64C-7.884,65.442 -10.417,65.094 -13.625,65.062C-14.814,65.053 -16.002,65.044 -17.227,65.035C-18.599,65.018 -18.599,65.018 -20,65C-18.846,57.793 -17.571,50.613 -16.238,43.438C-15.76,40.842 -15.282,38.247 -14.803,35.652C-14.473,33.869 -14.141,32.087 -13.805,30.305C-13.317,27.705 -12.839,25.103 -12.363,22.5C-12.211,21.705 -12.059,20.91 -11.903,20.092C-11.234,16.382 -10.912,13.606 -12,10C-16.11,11.45 -19.433,13.511 -23,16C-23,11.734 -22.384,10.62 -19.633,7.523C-13.932,2.204 -7.871,-0.69 0,0Z" style="fill:white;fill-rule:nonzero;"/>
    </g>
    <g transform="matrix(1,0,0,1,2700.332031,953.417969)">
        <path d="M0,0C2.803,1.662 4.182,2.692 5.668,5.582C6.212,9.235 5.889,11.121 4.293,14.457C0.813,17.274 -1.629,17.142 -5.992,17.148C-8.332,16.582 -8.332,16.582 -10.066,14.812C-11.955,11.484 -12.523,8.315 -13.332,4.582C-16.785,4.261 -18.857,4.333 -21.957,5.957C-29.394,14.177 -30.811,27.016 -30.578,37.684C-30.069,43.68 -28.65,47.926 -24.895,52.645C-20.324,55.919 -14.651,55.35 -9.332,54.582C-6.145,53.538 -3.249,52.232 -0.332,50.582L-0.332,54.582C-7.358,61.608 -15.313,64.692 -25.145,64.895C-33.066,64.821 -36.339,63.439 -42.082,57.957C-47.607,50.663 -48.155,41.389 -47.332,32.582C-45.516,21.519 -40.482,12.468 -31.797,5.344C-22.527,-1.282 -10.992,-4.678 0,0Z" style="fill:white;fill-rule:nonzero;"/>
    </g>
    <g transform="matrix(1,0,0,1,2231,941)">
        <path d="M0,0L4,0C3.859,1.959 3.712,3.917 3.562,5.875C3.481,6.966 3.4,8.056 3.316,9.18C3,12 3,12 2,14C2.838,13.836 3.676,13.673 4.539,13.504C8.205,12.97 11.672,12.903 15.375,12.938C17.243,12.951 17.243,12.951 19.148,12.965C20.56,12.982 20.56,12.982 22,13C21.25,18.75 21.25,18.75 19,21C13.07,21.74 6.886,20.747 1,20C0.902,20.744 0.804,21.488 0.703,22.254C-0.524,31.216 -2.038,40.107 -3.679,49.002C-5.669,57.835 -5.669,57.835 -3,66C4.073,67.829 10.048,64.479 16,61C16,65 16,65 14.602,66.746C6.93,73.311 -0.121,77.878 -10.512,77.363C-13.833,76.878 -16.243,75.909 -19,74C-23.892,66.661 -20.891,55.03 -19.285,46.728C-18.865,44.629 -18.434,42.533 -18,40.438C-17.568,38.301 -17.139,36.164 -16.716,34.026C-16.335,32.11 -15.943,30.197 -15.551,28.283C-15.073,25.433 -14.886,22.878 -15,20C-16.98,19.34 -18.96,18.68 -21,18C-20.67,16.68 -20.34,15.36 -20,14C-19.443,13.937 -18.886,13.874 -18.312,13.809C-11.583,12.729 -7.554,10.028 -3,5C-2.134,3.546 -2.134,3.546 -1.25,2.062C-0.838,1.382 -0.425,0.701 0,0Z" style="fill:white;fill-rule:nonzero;"/>
    </g>
    <g transform="matrix(1,0,0,1,2558.5625,952.25)">
        <path d="M0,0C0.785,0.067 1.57,0.134 2.379,0.203C4.438,0.75 4.438,0.75 6.438,3.75C7.568,13.519 5.512,23.055 3.5,32.562C2.944,35.256 2.396,37.95 1.848,40.645C1.595,41.882 1.343,43.119 1.083,44.393C0.356,48.176 -0.175,51.919 -0.562,55.75C4.333,53.873 4.333,53.873 8.438,50.75L11.438,50.75C10.567,56.228 6.563,59.369 2.438,62.75C-1.575,65.121 -4.716,65.764 -9.375,65.688C-13.017,64.616 -13.653,63.912 -15.562,60.75C-17.525,51.709 -13.854,40.821 -12.062,31.938C-11.56,29.418 -11.059,26.897 -10.565,24.376C-10.258,22.817 -9.947,21.258 -9.63,19.701C-8.897,16 -8.38,12.527 -8.562,8.75C-9.837,9.346 -11.107,9.952 -12.375,10.562C-13.083,10.899 -13.79,11.235 -14.52,11.582C-16.574,12.756 -17.979,14.006 -19.562,15.75C-20.223,15.42 -20.883,15.09 -21.562,14.75C-18.536,7.94 -14.002,4.188 -7.562,0.75C-4.569,-0.248 -3.072,-0.304 0,0Z" style="fill:white;fill-rule:nonzero;"/>
    </g>
    <g transform="matrix(1,0,0,1,1560,952)">
        <path d="M0,0C3.185,1.76 3.833,2.499 5,6C4.949,15.831 2.918,25.418 0.938,35C0.513,37.072 0.09,39.144 -0.326,41.217C-0.7,43.077 -1.083,44.935 -1.465,46.793C-1.935,49.612 -2.11,52.152 -2,55C1.889,54.46 3.922,53.36 7,51L10,51C7.437,57.29 1.478,62.026 -4.312,65.312C-8.087,66.278 -11.303,66.318 -15,65C-17.454,62.248 -18.01,60.227 -17.98,56.553C-17.292,48.114 -15.712,39.957 -13.938,31.688C-13.376,29.068 -12.824,26.447 -12.277,23.824C-11.91,22.109 -11.91,22.109 -11.535,20.358C-10.976,16.851 -10.908,13.545 -11,10C-15.87,10.417 -17.722,12.545 -21,16L-23,16C-22.883,12.135 -21.507,10.147 -18.938,7.438C-13.386,2.238 -7.822,-1.053 0,0Z" style="fill:white;fill-rule:nonzero;"/>
    </g>
    <g transform="matrix(1,0,0,1,329,217)">
        <path d="M0,0L6,0C5.326,10.79 -2.277,18.763 -9.977,25.809C-11.279,26.932 -12.588,28.05 -13.902,29.16C-17.794,32.573 -21.38,36.304 -25,40C-27.468,38.848 -29.048,37.952 -31,36C-30.986,32.748 -29.694,31.676 -27.445,29.301C-26.347,28.295 -25.24,27.3 -24.125,26.312C-23.544,25.787 -22.962,25.262 -22.363,24.721C-16.218,19.211 -9.907,13.852 -3.238,8.984C-0.627,7.063 -0.627,7.063 -0.188,3.25C-0.095,1.641 -0.095,1.641 0,0Z" style="fill:white;fill-rule:nonzero;"/>
    </g>
    <g transform="matrix(1,0,0,1,2566,918)">
        <path d="M0,0C3.043,1.987 4.621,3.32 5.438,6.938C5.652,10.484 5.115,12.75 3.625,16C0.157,18.642 -2.303,18.521 -6.562,18.469C-9.494,17.905 -10.89,17.105 -13,15C-14.442,10.793 -14.462,7.056 -12.688,3C-9.316,-0.995 -4.902,-0.727 0,0Z" style="fill:white;fill-rule:nonzero;"/>
    </g>
    <g transform="matrix(1,0,0,1,1566,918)">
        <path d="M0,0C2.625,1.375 2.625,1.375 4,4C4.713,8.567 4.795,12.483 2.625,16.625C-1.517,18.795 -5.433,18.713 -10,18C-12.625,16.625 -12.625,16.625 -14,14C-14.713,9.433 -14.795,5.517 -12.625,1.375C-8.483,-0.795 -4.567,-0.713 0,0Z" style="fill:white;fill-rule:nonzero;"/>
    </g>
    <g transform="matrix(1,0,0,1,2603,457)">
        <path d="M0,0C0.66,0.33 1.32,0.66 2,1C0.607,4.152 -1.025,6.262 -3.477,8.672C-4.482,9.668 -4.482,9.668 -5.508,10.684C-6.206,11.366 -6.905,12.047 -7.625,12.75C-8.331,13.447 -9.038,14.145 -9.766,14.863C-11.506,16.58 -13.251,18.292 -15,20C-18.928,14.882 -18.928,14.882 -19,12C-17.27,9.746 -17.27,9.746 -14.812,7.438C-14.015,6.673 -13.217,5.909 -12.395,5.121C-8.032,1.257 -6.02,-0.524 0,0Z" style="fill:white;fill-rule:nonzero;"/>
    </g>
</svg>
